<svg width="61" height="40" viewBox="0 0 61 40" fill="none" xmlns="http://www.w3.org/2000/svg">
<g clip-path="url(#clip0_2304_19951)">
<path fill-rule="evenodd" clip-rule="evenodd" d="M30.7237 16.5742C30.7237 15.3438 29.8947 14.2923 28.1495 14.2923H24.6571V18.8572H28.1495C29.8947 18.8572 30.7237 17.8287 30.7237 16.5742ZM28.9551 28.0792H22.2402V12.1431H28.4175C31.5286 12.1431 33.1409 13.911 33.1409 16.4183C33.1409 17.739 32.648 19.0144 30.7906 19.843V19.8874C32.5356 20.2901 33.3867 21.9467 33.3867 23.5584C33.3867 26.3114 31.3494 28.0792 28.9551 28.0792ZM30.9692 23.4019C30.9692 22.1481 30.1634 21.0065 28.3729 21.0065H24.6571V25.797H28.3729C30.1634 25.797 30.9692 24.655 30.9692 23.4019ZM4.20817 12.144H1.92493V14.4271H4.20817V12.144ZM4.20817 16.7319H1.92493V28.7865C1.92493 29.6361 1.43304 29.9948 0.649512 29.9948H0V32.1438H0.895239C2.82017 32.1438 4.20817 30.8678 4.20817 28.9651V16.7319ZM15.0374 21.388V23.2683H7.96488C7.96488 25.1259 9.1065 26.0655 10.6727 26.0655C11.5458 26.0655 12.4859 25.6631 13.1575 24.9692L14.8139 26.379C13.6948 27.6772 12.2397 28.2146 10.7177 28.2146C8.38987 28.2146 5.68164 27.0946 5.68164 22.44C5.68164 18.0305 8.16601 16.5977 10.3594 16.5977C12.8665 16.5977 15.0374 18.4548 15.0374 21.388ZM10.3594 18.7464C9.01665 18.7464 8.0097 19.6644 7.96488 21.388H12.7552C12.6877 19.6644 11.7024 18.7464 10.3594 18.7464ZM16.8463 13.2842H19.1295V16.7307H20.786V18.4766H19.1295V25.0799C19.1295 25.7071 19.3757 25.9299 19.9355 25.9299H20.786V28.0789H19.5993C18.0104 28.0789 16.8463 27.0717 16.8463 25.2815V18.4766H15.7051V16.7307H16.8463V13.2842ZM34.6992 12.1431H36.9827V25.1473C36.9827 25.6626 37.2739 25.9302 37.8331 25.9302H38.6166V28.0792H37.6097C35.9532 28.0792 34.6992 27.3632 34.6992 25.3266V12.1431ZM42.2832 17H40V24.5434C40 27.1176 42.015 28.4831 43.8055 28.4831C44.9915 28.4831 46.0212 28.0352 46.7378 27.1404H46.782V28.3482H49.0656V17H46.782V23.7603C46.782 25.3044 45.8194 26.1992 44.5442 26.1992C43.2454 26.1992 42.2832 25.3044 42.2832 23.7603V17ZM59.2275 23.2683V21.388C59.2275 18.4548 57.0564 16.5977 54.5495 16.5977C52.3557 16.5977 49.8711 18.0305 49.8711 22.44C49.8711 27.0946 52.5793 28.2146 54.9069 28.2146C56.4296 28.2146 57.8843 27.6772 59.0036 26.379L57.3469 24.9692C56.676 25.6631 55.7353 26.0655 54.8626 26.0655C53.2964 26.0655 52.1543 25.1259 52.1543 23.2683H59.2275ZM52.1543 21.388C52.1994 19.6644 53.2061 18.7464 54.5495 18.7464C55.8923 18.7464 56.8773 19.6644 56.9451 21.388H52.1543ZM60.0132 17.4452H59.8733V17.1131H60.0573C60.1883 17.1131 60.3227 17.1441 60.3227 17.2806C60.3227 17.4345 60.175 17.4452 60.0132 17.4452ZM60.119 16.9299H59.673V18.1061H59.8733V17.6295H59.988L60.3249 18.1061H60.5595L60.2226 17.6242C60.3866 17.6045 60.5237 17.5153 60.5237 17.2806C60.5237 17.0379 60.3899 16.9299 60.119 16.9299ZM60.847 17.546C60.847 18.0171 60.5097 18.3551 60.0552 18.3551C59.6002 18.3551 59.2627 18.0171 59.2627 17.546C59.2627 17.0746 59.6002 16.7373 60.0552 16.7373C60.5097 16.7373 60.847 17.0746 60.847 17.546ZM61.0654 17.546C61.0654 16.988 60.612 16.5364 60.0552 16.5364C59.4977 16.5364 59.0449 16.988 59.0449 17.546C59.0449 18.1041 59.4977 18.5555 60.0552 18.5555C60.612 18.5555 61.0654 18.1041 61.0654 17.546Z" fill="#191919"/>
</g>
<defs>
<clipPath id="clip0_2304_19951">
<rect width="60.7143" height="40" fill="white"/>
</clipPath>
</defs>
</svg>
