<svg width="100" height="40" viewBox="0 0 100 40" fill="none" xmlns="http://www.w3.org/2000/svg">
<g clip-path="url(#clip0_2304_19966)">
<g clip-path="url(#clip1_2304_19966)">
<path d="M0 26.3265C0 18.7755 0 11.2245 0 3.67347C0.0244898 3.59932 0.0564626 3.52653 0.0721088 3.45034C0.410204 1.79388 1.38844 0.708163 2.98844 0.179592C3.21225 0.106122 3.4449 0.0591837 3.67347 0C34.0136 0 64.3537 0 94.6939 0C94.768 0.0244898 94.8408 0.0564626 94.9163 0.0721088C96.5293 0.4 97.6116 1.3381 98.1537 2.89184C98.2422 3.14626 98.2973 3.41225 98.3674 3.67347V26.3265C98.3429 26.4007 98.3109 26.4735 98.2952 26.5497C97.9578 28.2061 96.9789 29.2918 95.3789 29.8204C95.1551 29.8946 94.9225 29.9408 94.6939 30H3.67347C3.59932 29.9755 3.52721 29.9435 3.45102 29.9279C1.83878 29.5993 0.755102 28.6626 0.213605 27.1082C0.12517 26.8537 0.070068 26.5871 0 26.3265ZM65.8789 10.8748C65.9238 12.7878 65.968 14.6762 66.0143 16.649C65.9667 16.4959 65.9395 16.4231 65.9211 16.3476C65.4932 14.6122 65.0626 12.8776 64.6456 11.1395C64.5932 10.9204 64.5041 10.8422 64.281 10.8497C63.8395 10.8646 63.3959 10.8769 62.9558 10.8469C62.6122 10.8238 62.5156 10.9293 62.5177 11.2782C62.5327 13.8048 62.5259 16.3313 62.5259 18.8585C62.5259 18.9381 62.5048 19.0286 62.5354 19.0932C62.5708 19.1673 62.6517 19.2707 62.7163 19.2728C63.1429 19.2884 63.5694 19.281 64.0401 19.281C63.998 17.3279 63.9565 15.4156 63.9156 13.5034C63.9708 13.5721 63.9973 13.6442 64.015 13.719C64.4333 15.468 64.8571 17.2163 65.2626 18.968C65.3211 19.2197 65.4245 19.298 65.6721 19.2871C66.0905 19.2687 66.5116 19.2619 66.9293 19.2884C67.2571 19.3095 67.3483 19.2 67.3463 18.8728C67.3333 16.3347 67.3395 13.7966 67.3381 11.2585C67.3381 11.1367 67.3265 11.015 67.3197 10.8742H65.8789V10.8748ZM15.0864 14.9735C15.732 14.8163 15.9483 14.3762 15.9578 13.8C15.9667 13.2571 15.985 12.7116 15.9442 12.1714C15.8728 11.2218 15.4531 10.8592 14.4898 10.8544C13.7646 10.851 13.0395 10.8537 12.3136 10.8537C11.9993 10.8537 11.6857 10.8537 11.3626 10.8537V19.2503H12.9469V15.5918C13.2061 15.5918 13.4211 15.5878 13.6361 15.5925C14.2116 15.6048 14.4041 15.8 14.4075 16.3823C14.4109 17.0286 14.3959 17.6748 14.415 18.3204C14.4224 18.5762 14.4878 18.8333 14.5537 19.0823C14.5742 19.1599 14.6816 19.268 14.7517 19.2707C15.266 19.2871 15.7803 19.2796 16.2286 19.2796C16.1537 18.8612 16.0503 18.483 16.0252 18.1C15.9912 17.581 16.0027 17.0571 16.0197 16.5367C16.0429 15.8204 15.8116 15.2694 15.0857 14.9741L15.0864 14.9735ZM29.1061 13.3395H30.6769C30.6769 12.932 30.715 12.5449 30.6687 12.1673C30.5701 11.3633 29.9816 10.8728 28.985 10.7054C27.2374 10.4122 26.215 11.2721 26.2272 13.0245C26.2272 13.0361 26.2272 13.0469 26.2272 13.0585C26.2122 13.8755 26.5578 14.4959 27.2395 14.9408C27.7327 15.2626 28.2374 15.5728 28.6993 15.9361C28.9048 16.098 29.1 16.3578 29.1551 16.6061C29.232 16.9497 29.1925 17.3259 29.166 17.685C29.1422 18.0102 28.9327 18.1844 28.6075 18.219C28.0435 18.2796 27.7707 18.0463 27.7619 17.4796C27.7551 17.0884 27.7605 16.6966 27.7605 16.2946H26.2014C26.2014 16.8864 26.1551 17.4551 26.2143 18.0129C26.2762 18.5925 26.6388 19.0082 27.1844 19.2286C27.9354 19.532 28.7116 19.5449 29.4864 19.3442C30.2844 19.1374 30.6905 18.6469 30.7694 17.8286C30.8007 17.502 30.781 17.1714 30.8102 16.8449C30.8918 15.9306 30.4782 15.2776 29.751 14.7823C29.2918 14.4701 28.8503 14.1279 28.3701 13.8524C27.7639 13.5054 27.7048 12.9177 27.8197 12.385C27.9 12.0129 28.1231 11.8789 28.5592 11.9129C28.9075 11.9401 29.0823 12.1136 29.102 12.4844C29.117 12.7544 29.1048 13.0259 29.1048 13.3395H29.1061ZM23.3884 13.3415C23.3884 12.9252 23.4293 12.5265 23.3789 12.1401C23.298 11.515 22.9177 11.0905 22.3306 10.8707C21.5429 10.5762 20.7537 10.6041 19.9776 10.9218C19.6082 11.0728 19.2993 11.3156 19.151 11.6898C18.8 12.5762 18.7184 14.2259 19.9776 14.9626C20.485 15.2592 20.9789 15.5884 21.4395 15.9531C21.6429 16.1143 21.8197 16.3837 21.8782 16.634C21.9531 16.9565 21.9082 17.3095 21.8912 17.6483C21.8776 17.9197 21.7367 18.1156 21.4612 18.1952C20.8837 18.3626 20.4891 18.0776 20.4823 17.4816C20.4782 17.0898 20.4816 16.698 20.4816 16.2932H18.8959C18.8959 16.8156 18.8728 17.3136 18.9014 17.8088C18.9429 18.5238 19.3252 19.0116 19.9925 19.2667C20.5905 19.4952 21.2136 19.517 21.8354 19.4218C22.9408 19.2524 23.3993 18.7639 23.5 17.6619C23.5347 17.2796 23.5279 16.8925 23.5252 16.5075C23.5218 15.9694 23.332 15.4939 22.9075 15.1626C22.3197 14.7034 21.7027 14.2803 21.0918 13.851C20.5653 13.481 20.3823 13.0388 20.5238 12.4204C20.6143 12.0231 20.8265 11.8796 21.2728 11.9122C21.632 11.9388 21.8041 12.1177 21.8231 12.5136C21.8361 12.7816 21.8259 13.051 21.8259 13.3415H23.3884V13.3415ZM9.24286 16.1122C9.24286 16.5816 9.25306 17.032 9.24014 17.4816C9.22585 17.9925 9.00476 18.2163 8.54694 18.217C8.0932 18.2177 7.82857 17.9837 7.82517 17.502C7.81293 15.8701 7.81225 14.2374 7.82517 12.6054C7.82925 12.0966 8.11905 11.8721 8.62381 11.9211C9.02381 11.9599 9.21905 12.1721 9.23673 12.6354C9.25306 13.0619 9.24014 13.4905 9.24014 13.9381H10.8041C10.8041 13.3231 10.8435 12.7224 10.7932 12.1293C10.7381 11.4823 10.3524 11.0061 9.72313 10.8667C9.1585 10.7415 8.55238 10.6653 7.98367 10.7306C6.77279 10.8707 6.26259 11.4014 6.22313 12.6122C6.16735 14.3218 6.17823 16.0354 6.22109 17.7456C6.24422 18.6769 6.65646 19.098 7.56054 19.3408C8.17415 19.5054 8.79456 19.5143 9.41088 19.3735C10.0184 19.2347 10.5027 18.9218 10.702 18.2939C10.9299 17.5762 10.8014 16.8422 10.8218 16.1116H9.2415L9.24286 16.1122ZM45.6721 16.5742C45.698 16.5748 45.7231 16.5755 45.749 16.5769C46.0272 17.3884 46.302 18.2007 46.5864 19.0095C46.6204 19.1061 46.6986 19.2605 46.7612 19.2626C47.2959 19.283 47.832 19.2741 48.4122 19.2741C48.3497 19.1068 48.3136 19.002 48.2714 18.9C47.7571 17.668 47.2469 16.434 46.7218 15.2061C46.6163 14.9599 46.5966 14.7544 46.7143 14.5007C46.9864 13.9163 47.2231 13.3156 47.4728 12.7204C47.7252 12.1184 47.9755 11.515 48.2517 10.8524H47.3211C46.7751 10.8524 46.4159 11.1109 46.2435 11.6279C46.085 12.1 45.9177 12.5694 45.7218 13.1361C45.4728 12.4014 45.2639 11.7707 45.0422 11.1435C45.0054 11.0388 44.9163 10.8748 44.8463 10.8714C44.3211 10.8483 43.7946 10.8592 43.2211 10.8592C43.2816 11.0224 43.3163 11.1272 43.3592 11.2286C43.8102 12.3027 44.2551 13.3803 44.7197 14.449C44.8286 14.7 44.8238 14.9068 44.717 15.1551C44.2592 16.2265 43.8197 17.3061 43.3748 18.3837C43.2599 18.6626 43.1476 18.9429 43.0102 19.2823C43.519 19.2823 43.9694 19.268 44.4177 19.2878C44.6667 19.2993 44.7728 19.2082 44.8483 18.9755C45.1102 18.1707 45.3959 17.3735 45.6721 16.5735V16.5742ZM40.1694 12.1769H42.6524V10.8837H38.5946V19.2585H42.766V17.9374H40.1905V15.4265H42.5102V14.1082C42.3694 14.1014 42.2483 14.0912 42.1265 14.0912C41.5599 14.0891 40.9932 14.098 40.4272 14.0816C40.3395 14.0789 40.183 13.9707 40.181 13.9068C40.1612 13.3435 40.1694 12.7803 40.1694 12.1776V12.1769ZM69.5871 17.9367C69.5871 17.1442 69.5823 16.3776 69.5966 15.6109C69.598 15.551 69.7367 15.4469 69.815 15.4429C70.1878 15.4245 70.5626 15.434 70.9367 15.4333C71.9517 15.4333 71.9408 15.4333 71.9422 14.4224C71.9422 14.1395 71.8374 14.0796 71.585 14.085C71.0075 14.098 70.4293 14.0946 69.8517 14.0823C69.7633 14.0803 69.6027 13.9973 69.6014 13.9483C69.5837 13.366 69.5898 12.783 69.5898 12.1816C70.3626 12.1816 71.0762 12.1735 71.7891 12.1864C72.0238 12.1905 72.1197 12.1184 72.1034 11.8782C72.0884 11.6524 72.0871 11.4245 72.1034 11.1986C72.1225 10.9388 72.0381 10.8435 71.7619 10.8469C70.6857 10.8619 69.6088 10.8531 68.532 10.8531C68.366 10.8531 68.2 10.8531 68.0177 10.8531V19.2558H72.1605V17.9367H69.5857H69.5871ZM50.0082 12.1204C50.0082 12.3224 50.0082 12.4789 50.0082 12.6347C50.0082 14.7306 50.0129 16.8265 50.0027 18.9224C50.0014 19.2034 50.0816 19.3088 50.3667 19.2864C50.6483 19.2646 50.9347 19.2612 51.2156 19.2864C51.5456 19.317 51.634 19.1959 51.6313 18.8701C51.617 16.7742 51.6238 14.6782 51.6238 12.5823C51.6238 12.4395 51.6238 12.2959 51.6238 12.1075H53.1347V10.8762H48.5007V12.1197H50.0075L50.0082 12.1204ZM35.1116 12.1184V19.2524H36.6932V12.1048H38.2143V10.8823H33.5537V12.1184H35.1116V12.1184ZM76.5136 21.6408V8.36531H75.3265V21.6422H76.5136V21.6408ZM57.6878 17.9646V10.8762H56.1279V19.2565H59.9388V17.9646H57.6878ZM18.3088 19.2605V10.8531C17.9075 10.8531 17.5245 10.8755 17.1456 10.8463C16.8054 10.8197 16.7347 10.9517 16.7361 11.2687C16.7483 13.8041 16.7422 16.3395 16.7435 18.8755C16.7435 18.9973 16.7544 19.1184 16.7619 19.2599H18.3088V19.2605ZM24.0803 10.8571V19.2605H25.619C25.6259 19.119 25.6374 18.9973 25.6374 18.8762C25.6381 16.3408 25.6381 13.8054 25.6374 11.2694C25.6374 11.1905 25.6551 11.1027 25.6279 11.034C25.6007 10.9653 25.5279 10.8667 25.4728 10.8646C25.0129 10.851 24.5524 10.8571 24.0803 10.8571ZM60.3565 10.8762V19.2592H61.8884V10.8762H60.3565Z" fill="#191919"/>
<path d="M12.9453 14.3374V12.1252C13.3025 12.1252 13.6548 12.0878 13.9916 12.1435C14.1303 12.1667 14.3229 12.3803 14.3392 12.5245C14.3882 12.9599 14.3698 13.4034 14.363 13.8429C14.3582 14.1619 14.1508 14.3116 13.8603 14.332C13.5691 14.3524 13.2752 14.3367 12.9453 14.3367V14.3374Z" fill="#191919"/>
</g>
</g>
<defs>
<clipPath id="clip0_2304_19966">
<rect width="100" height="40" fill="white"/>
</clipPath>
<clipPath id="clip1_2304_19966">
<rect width="98.3673" height="30" fill="white"/>
</clipPath>
</defs>
</svg>
