<svg width="131" height="40" viewBox="0 0 131 40" fill="none" xmlns="http://www.w3.org/2000/svg">
<g clip-path="url(#clip0_2304_19971)">
<path fill-rule="evenodd" clip-rule="evenodd" d="M26.059 18.8056C26.059 20.5159 25.4686 21.9513 24.1374 23.5604V14.0957C25.2914 15.1412 26.059 16.9868 26.059 18.8056ZM28.105 28.9127V27.248C26.6978 26.939 25.724 26.1743 25.0345 24.8178C27.1587 22.4614 27.7237 21.1569 27.7237 18.7535C27.7237 16.3458 26.4164 13.7376 24.4464 12.2031C23.8574 11.7401 23.5254 11.536 22.4756 10.9999V28.8592H24.1374V26.2495C25.0345 27.8868 26.339 28.7564 28.105 28.9127ZM18.1701 18.8057C18.1701 20.516 17.5819 21.9514 16.2514 23.5604V14.0958C17.4025 15.1412 18.1701 16.9868 18.1701 18.8057ZM19.8334 18.7254C19.8334 16.3458 18.5275 13.7102 16.5575 12.2031C15.97 11.7401 15.6379 11.5361 14.5896 11V28.8592H16.2514V25.7902C18.9392 23.0518 19.8334 21.3104 19.8334 18.7254ZM34.6897 27.1934V28.8589H30.2627V11.7926H34.6897V13.4545H31.9274V23.5608H34.6897V25.2256H31.9274V27.1934H34.6897ZM42.5686 13.4545V11.7926H36.9138V13.4545H38.9114V28.8589H40.5732V13.4545H42.5686ZM51.1675 23.9189H52.9553L52.0625 19.1692L51.1675 23.9189ZM52.0625 11.0249L55.3804 28.8212H53.848L53.262 25.5785H50.8608L50.2733 28.8212H48.7417L52.0625 11.0249ZM70.1848 28.8214V11.2798L66.7895 16.0548L63.3667 11.2798V28.8214H65.0271V17.0757L66.7895 19.4501L68.5259 17.0757V28.8214H70.1848ZM75.8414 23.9189H77.6291L76.7363 19.1692L75.8414 23.9189ZM76.7363 11.0249L80.0557 28.8212H78.5233L77.9359 25.5785H75.5361L74.9486 28.8212H73.417L76.7363 11.0249ZM88.9152 28.8214V11.7906H87.2563V17.203L83.2981 11.4585V28.8214H84.9585V16.999L87.2563 20.3436V28.8214H88.9152ZM98.4135 23.4581V25.9367C98.4135 27.6991 97.2139 29 95.555 29C93.8946 29 92.6936 27.6991 92.6936 25.9367V14.701C92.6936 12.914 93.8946 11.6371 95.555 11.6371C97.2139 11.6371 98.4135 12.914 98.4135 14.701V15.7226H96.7531V14.777C96.7531 13.8068 96.3465 13.296 95.555 13.296C94.762 13.296 94.354 13.8068 94.354 14.777V25.8593C94.354 26.8295 94.762 27.3403 95.555 27.3403C96.3465 27.3403 96.7531 26.8295 96.7531 25.8593V25.1185H95.2482V23.4581H98.4135ZM106.429 28.8214V27.1625H103.67V25.1953H106.429V23.5357H103.67V13.4503H106.429V11.7906H102.012V28.8214H106.429ZM112.048 23.4948C113.359 21.9039 113.94 20.4902 113.94 18.7994C113.94 17.0066 113.184 15.1892 112.048 14.1532V23.4948ZM115.961 27.1303V28.7719C114.219 28.6207 112.931 27.7619 112.048 26.1456V28.7213H110.406V11.0986C111.442 11.6304 111.77 11.8315 112.35 12.2851C114.294 13.8008 115.582 16.375 115.582 18.7487C115.582 21.1225 115.027 22.4089 112.931 24.732C113.612 26.0697 114.573 26.8272 115.961 27.1303ZM125.949 14.9304L127.337 18.9993H131.124L128.093 21.1314L129.273 24.8342L125.949 22.6746L122.651 24.806L123.83 21.1314L120.744 18.9993H124.56L125.949 14.9304ZM5.59166 19.1102L4.20402 15.0428L2.81349 19.1102H-1L2.08421 21.2437L0.905657 24.9176L4.20402 22.7862L7.52626 24.9458L6.34915 21.2437L9.37693 19.1102H5.59166Z" fill="#191919"/>
</g>
<defs>
<clipPath id="clip0_2304_19971">
<rect width="131" height="40" fill="white"/>
</clipPath>
</defs>
</svg>
