<svg width="96" height="40" viewBox="0 0 96 40" fill="none" xmlns="http://www.w3.org/2000/svg">
<g clip-path="url(#clip0_2304_19961)">
<path d="M53.139 33.4582H56.4098C56.4098 32.4557 55.9136 31.7367 54.9111 31.7367C53.9187 31.7367 53.301 32.4557 53.139 33.4582ZM55.1339 37.5595C53.1896 37.5595 51.863 36.2835 51.863 34.1772C51.863 32.1215 53.0782 30.6835 54.8605 30.6835C56.6934 30.6835 57.6352 31.9595 57.6352 33.9038V34.5114H53.0782C53.2503 35.838 54.0807 36.4557 55.306 36.4557C56.025 36.4557 56.5212 36.2835 57.1288 35.838H57.1896V36.9519C56.6326 37.3975 55.9136 37.5595 55.1339 37.5595M48.7541 33.5696C49.6959 33.843 50.7491 34.238 50.7491 35.5139C50.7491 36.8405 49.6453 37.5595 48.1972 37.5595C47.3668 37.5595 46.4757 37.3367 45.9795 36.9519V35.7873H46.0301C46.5871 36.2835 47.4174 36.5063 48.1972 36.5063C48.9162 36.5063 49.5339 36.2329 49.5339 35.6759C49.5339 35.0684 49.0276 34.957 47.9744 34.562C47.0326 34.2886 46.0301 33.9544 46.0301 32.6785C46.0301 31.4025 47.0934 30.6835 48.42 30.6835C49.1997 30.6835 49.8681 30.8456 50.4149 31.1797V32.4051H50.3643C49.8681 31.9595 49.1997 31.7367 48.42 31.7367C47.6402 31.7367 47.2048 32.0709 47.2048 32.5165C47.2048 33.0734 47.701 33.1747 48.7541 33.5696M43.0428 30.7949H44.3187V37.3975H43.0428V30.7949ZM43.701 28.1316C44.0959 28.1316 44.4807 28.4658 44.4807 28.9013C44.4807 29.3468 44.0959 29.681 43.701 29.681C43.2554 29.681 42.8706 29.3468 42.8706 28.9013C42.8706 28.4658 43.2554 28.1316 43.701 28.1316ZM39.5997 31.8481C39.8731 31.1291 40.4807 30.6835 41.2098 30.6835C41.544 30.6835 41.7567 30.7342 41.8681 30.7949V32.0101H41.8174C41.6554 31.9595 41.3719 31.8987 41.0377 31.8987C40.3693 31.8987 39.8225 32.3443 39.5997 33.1241V37.3975H38.3238V30.7949H39.5997V31.8481ZM33.6048 36.4557C34.8807 36.4557 35.5997 35.4532 35.5997 34.1266C35.5997 32.7899 34.8807 31.7873 33.6048 31.7873C32.9364 31.7873 32.3288 32.1823 31.9947 32.8506V35.4025C32.3288 36.0101 32.9364 36.4557 33.6048 36.4557M33.8276 30.6835C35.8225 30.6835 36.8757 32.2937 36.8757 34.1266C36.8757 35.9595 35.8225 37.5595 33.8276 37.5595C33.0478 37.5595 32.3288 37.1241 31.9947 36.6785V39.9494H30.7187V30.7949H31.9947V31.5747C32.3288 31.0684 33.0478 30.6835 33.8276 30.6835M27.3364 31.8481C27.6098 31.1291 28.2174 30.6835 28.9465 30.6835C29.22 30.6835 29.4934 30.7342 29.6048 30.7949V32.0101H29.5541C29.382 31.9595 29.0579 31.8987 28.7744 31.8987C28.106 31.8987 27.4984 32.3443 27.3364 33.1241V37.3975H26.0605V30.7949H27.3364V31.8481ZM20.1162 33.4582H23.3972C23.3364 32.4557 22.8402 31.7367 21.8377 31.7367C20.8959 31.7367 20.2883 32.4557 20.1162 33.4582ZM22.0605 37.5595C20.1162 37.5595 18.7896 36.2835 18.7896 34.1772C18.7896 32.1215 20.0048 30.6835 21.8377 30.6835C23.62 30.6835 24.6124 31.9595 24.6124 33.9038V34.5114H20.0655C20.1769 35.838 21.0579 36.4557 22.2225 36.4557C22.9516 36.4557 23.5086 36.2835 24.0554 35.838H24.1162V36.9519C23.5592 37.3975 22.8909 37.5595 22.0605 37.5595ZM16.2883 30.7949H18.0098V31.8481H16.2883V35.4532C16.2883 36.1722 16.6833 36.4557 17.4022 36.4557C17.625 36.4557 17.7871 36.3949 17.9592 36.3443H18.0098V37.3975C17.8478 37.5089 17.5643 37.5595 17.2301 37.5595C15.6807 37.5595 15.0731 36.8405 15.0731 35.5646V31.8481H13.9086V30.7949H15.0731V29.0127H16.2883V30.7949ZM10.6276 30.6835C12.1263 30.6835 12.9567 31.6253 12.9567 33.2354V37.3975H11.6807V33.2861C11.6807 32.4051 11.2352 31.7873 10.2934 31.7873C9.52376 31.7873 8.85541 32.2937 8.63262 33.0127V37.3975H7.40731V30.7949H8.63262V31.7367C9.01743 31.1291 9.68579 30.6835 10.6276 30.6835M0.0351562 28.0203H5.85794V29.1848H1.31111V32.0101H5.41237V33.1241H1.31111V36.2835H5.85794V37.3975H0.0351562V28.0203V28.0203ZM93.706 22.6937V20.5266C93.3719 20.0304 92.9263 19.8076 92.4301 19.8076C91.539 19.8076 90.982 20.476 90.982 21.5797C90.982 22.7443 91.539 23.362 92.4301 23.362C92.9263 23.362 93.3719 23.1392 93.706 22.6937M93.7567 24.243C93.3111 24.8 92.6529 25.0734 91.7617 25.0734C90.0402 25.0734 88.9263 23.5241 88.9263 21.5797C88.9263 19.6962 90.0402 18.0861 91.7617 18.0861C92.6529 18.0861 93.2605 18.3696 93.706 18.8658V15.5342H95.701V24.962H93.7567V24.243V24.243ZM86.1516 19.362C86.5466 18.5823 87.0428 18.1975 87.7617 18.1975C88.0453 18.1975 88.3187 18.2582 88.4301 18.3089V20.1924H88.3795C88.1567 20.081 87.8731 20.0304 87.4883 20.0304C86.8807 20.0304 86.3744 20.4152 86.2124 21.0835V24.962H84.2174V18.2582H86.1516V19.362V19.362ZM80.825 22.8557V22.2481C80.5516 22.0861 80.1668 22.0253 79.7212 22.0253C79.1136 22.0253 78.7187 22.3089 78.7187 22.8051C78.7187 23.362 79.1136 23.6354 79.6605 23.6354C80.2174 23.6354 80.663 23.362 80.825 22.8557ZM80.8858 24.3038C80.4402 24.8 79.8326 25.0734 79.1136 25.0734C77.8276 25.0734 76.7238 24.243 76.7238 22.8557C76.7238 21.5291 77.8276 20.6987 79.3263 20.6987C79.8326 20.6987 80.3288 20.7494 80.825 20.9215V20.8101C80.825 20.081 80.4402 19.757 79.3263 19.757C78.6681 19.757 78.0503 19.919 77.5035 20.2532H77.3921V18.643C77.8883 18.3696 78.8301 18.0861 79.7212 18.0861C81.7162 18.0861 82.8301 19.0886 82.8301 20.7494V24.962H80.8858V24.3038V24.3038ZM72.1162 21.9139V24.962H70.1212V15.5342H72.1162V20.9215L74.1111 18.2582H76.3896V18.3089L73.9491 21.357L76.3896 24.8506V24.962H74.1111L72.1162 21.9139V21.9139ZM63.5187 21.5797C63.5187 19.4734 65.0174 18.0861 67.0124 18.0861C67.7314 18.0861 68.3997 18.2582 68.8959 18.643V20.3038H68.7845C68.3997 19.9696 67.8428 19.8076 67.2858 19.8076C66.2934 19.8076 65.5136 20.476 65.5136 21.5797C65.5136 22.7443 66.2934 23.4127 67.2858 23.4127C67.8428 23.4127 68.3997 23.1899 68.7845 22.9165H68.8959V24.5772C68.3997 24.962 67.7314 25.0734 67.0124 25.0734C65.0174 25.0734 63.5187 23.7468 63.5187 21.5797ZM60.5212 22.8557V22.2481C60.2377 22.0861 59.8529 22.0253 59.4073 22.0253C58.7997 22.0253 58.4048 22.3089 58.4048 22.8051C58.4048 23.362 58.7997 23.6354 59.3567 23.6354C59.9035 23.6354 60.3491 23.362 60.5212 22.8557ZM60.5719 24.3038C60.1263 24.8 59.5187 25.0734 58.7997 25.0734C57.5238 25.0734 56.4098 24.243 56.4098 22.8557C56.4098 21.5291 57.5238 20.6987 59.0225 20.6987C59.5187 20.6987 60.0149 20.7494 60.5212 20.9215V20.8101C60.5212 20.081 60.1263 19.757 59.0731 19.757C58.3541 19.757 57.7466 19.919 57.1896 20.2532H57.0782V18.643C57.6352 18.3696 58.5162 18.0861 59.4073 18.0861C61.4022 18.0861 62.5162 19.0886 62.5162 20.7494V24.962H60.5719V24.3038V24.3038ZM52.5314 20.1418C53.5845 20.1418 54.0807 19.5848 54.0807 18.7544C54.0807 17.8633 53.5845 17.2557 52.5314 17.2557H51.2554V20.1418H52.5314ZM56.1364 18.7544C56.1364 20.8101 54.7997 21.9139 52.6934 21.9139H51.2554V24.962H49.1997V15.5342H52.6934C54.7997 15.5342 56.1364 16.6481 56.1364 18.7544M44.3693 18.2582H45.8681V19.8582H44.3693V22.5823C44.3693 23.1392 44.5921 23.4127 45.1997 23.4127C45.3719 23.4127 45.5947 23.4127 45.8174 23.362H45.8681V24.9114C45.5947 24.962 45.1997 25.0734 44.6428 25.0734C43.0428 25.0734 42.425 24.3544 42.425 22.6329V19.8582H39.8731V22.5823C39.8731 23.1392 40.0959 23.4127 40.7035 23.4127C40.8757 23.4127 41.0377 23.4127 41.2605 23.362H41.3212V24.9114C41.0984 24.962 40.7035 25.0734 40.0959 25.0734C38.4858 25.0734 37.8782 24.3544 37.8782 22.6329V19.8582H36.825V18.2582H37.8782V16.4253H39.8731V18.2582H42.425V16.4253H44.3693V18.2582V18.2582ZM31.944 20.8101H34.3845C34.3238 20.1418 34.0503 19.6456 33.2706 19.6456C32.663 19.6456 32.1567 19.919 31.944 20.8101ZM33.4934 25.0734C31.4377 25.0734 29.9997 23.8076 29.9997 21.6405C29.9997 19.5342 31.3871 18.0861 33.22 18.0861C35.2149 18.0861 36.2073 19.4228 36.2073 21.4177V22.1975H31.944C32.2174 23.2506 32.9972 23.524 33.8276 23.524C34.5466 23.524 35.0428 23.362 35.6605 22.9671H35.7719V24.5266C35.2149 24.9114 34.4352 25.0734 33.4934 25.0734M28.7238 25.0734C27.1136 25.0734 26.4453 24.4658 26.4453 22.9165V15.5342H28.3896V22.8051C28.3896 23.2506 28.6124 23.4127 28.9972 23.4127C29.1086 23.4127 29.3314 23.362 29.4428 23.362V24.962C29.2807 25.0228 28.9972 25.0734 28.7238 25.0734M20.5111 21.0329L19.4579 24.962H17.625L15.5693 18.3089V18.2582H17.5643L18.6782 22.1975L19.7314 18.2582H21.2807L22.3946 22.1975L23.5086 18.2582H25.3921V18.3089L23.3364 24.962H21.5643L20.5111 21.0329ZM10.8503 20.8101H13.2909C13.2402 20.1418 12.9567 19.6456 12.1871 19.6456C11.5693 19.6456 11.0731 19.919 10.8503 20.8101ZM12.4098 25.0734C10.3541 25.0734 8.90604 23.8076 8.90604 21.6405C8.90604 19.5342 10.2934 18.0861 12.1263 18.0861C14.1212 18.0861 15.1238 19.4228 15.1238 21.4177V22.1975H10.8503C11.1339 23.2506 11.9035 23.524 12.7339 23.524C13.463 23.524 13.9592 23.362 14.5668 22.9671H14.6782V24.5266C14.1212 24.9114 13.3516 25.0734 12.4098 25.0734ZM2.08073 24.962H0.0351562V15.5342H2.08073V19.2506H5.74655V15.5342H7.80224V24.962H5.74655V21.0329H2.08073M30.7187 7.37215H2.08073V2.04557H30.7187V7.37215V7.37215ZM0.0351562 0V9.42785H32.7744V0" fill="#191919"/>
</g>
<defs>
<clipPath id="clip0_2304_19961">
<rect width="96" height="40" fill="white"/>
</clipPath>
</defs>
</svg>
