<svg width="87" height="40" viewBox="0 0 87 40" fill="none" xmlns="http://www.w3.org/2000/svg">
<path d="M53.3108 11.8739C53.3108 12.3921 53.0221 12.668 52.4704 12.6773C51.9785 12.6858 51.4902 12.293 51.4902 11.8889C51.4902 11.4256 51.9493 10.9993 52.4468 11C52.9636 11.0007 53.3115 11.3528 53.3108 11.8739Z" fill="#191919"/>
<path d="M0 11.1682V17.1402C0.0257932 17.1434 0.04947 17.1471 0.0717307 17.1506C0.114064 17.1572 0.151278 17.163 0.188183 17.163L0.190925 17.163C2.00626 17.1673 3.82089 17.1716 5.63623 17.1716C5.89284 17.1716 5.99335 17.0696 5.9905 16.7767C5.97196 15.0353 5.97125 13.2931 5.99192 11.5517C5.99549 11.2288 5.86433 11.1575 5.60059 11.1575L0.437668 11.1682H0Z" fill="#191919"/>
<path d="M24.0261 15.1144V15.1154C24.0264 15.465 24.0267 15.8149 24.0267 16.1643L24.026 16.1651C24.0263 16.5184 24.0262 16.8717 24.026 17.225C24.0258 17.8428 24.0256 18.461 24.0274 19.079L24.0278 19.2179C24.0289 19.6807 24.03 20.1439 24.0488 20.6059C24.0609 20.9088 24.2441 21.1704 24.5343 21.1733C26.3586 21.1914 28.1835 21.1866 30.0084 21.1817L30.7906 21.1797C30.874 21.179 30.9924 21.1491 31.0344 21.0906C31.1663 20.906 31.0465 20.0185 30.8477 19.9202C30.591 19.7933 30.2945 19.6864 30.0137 19.6821C28.786 19.6643 27.5577 19.6764 26.3294 19.6884L26.0283 19.6914C25.8473 19.6928 25.7639 19.6486 25.7639 19.459C25.7662 18.93 25.7654 18.4008 25.7647 17.8716L25.7646 17.8678V17.8667C25.7643 17.604 25.7639 17.3408 25.7639 17.0782C25.7639 16.8993 25.8216 16.8016 26.0369 16.8045C27.0274 16.8178 28.0179 16.8245 29.0085 16.8312C29.3937 16.8338 29.7789 16.8364 30.1641 16.8394C30.425 16.8415 30.5561 16.7068 30.5689 16.4552C30.5706 16.4233 30.5733 16.3908 30.5761 16.358C30.5855 16.2457 30.5951 16.1308 30.5604 16.0332C30.5486 16 30.537 15.9652 30.525 15.9298C30.4561 15.7247 30.3794 15.4962 30.2311 15.4081C30.0502 15.3014 29.7949 15.3039 29.5569 15.3062C29.5183 15.3066 29.48 15.3069 29.4427 15.3068C28.3165 15.3026 27.1895 15.3047 26.0625 15.3247C25.8309 15.3289 25.7631 15.2441 25.7631 15.0438C25.7635 14.8746 25.764 14.7055 25.7646 14.5363C25.7663 13.9948 25.768 13.4533 25.7631 12.9118C25.7617 12.7079 25.8344 12.6509 26.0376 12.653C27.2172 12.6639 28.3973 12.6661 29.577 12.6682L30.2018 12.6694C30.8244 12.6694 31.1074 12.3534 31.0508 11.7214C31.0501 11.7154 31.0499 11.7093 31.0497 11.7034C31.0496 11.6974 31.0494 11.6915 31.0487 11.6857C31.013 11.3978 30.7864 11.1932 30.4877 11.191L29.5309 11.1842C28.0001 11.1731 26.4693 11.1619 24.9384 11.1625C24.9045 11.1625 24.8697 11.1618 24.8343 11.161C24.5676 11.1553 24.2717 11.1489 24.1408 11.4598C24.0574 11.6586 24.0324 11.8939 24.031 12.1134C24.0241 13.1135 24.0251 14.1141 24.0261 15.1144Z" fill="#191919"/>
<path d="M0.00461906 29.1008C0.020202 29.108 0.0329307 29.115 0.0438396 29.121C0.0630121 29.1315 0.0766065 29.139 0.0901569 29.139L0.486187 29.1411C2.20514 29.1505 3.92554 29.1599 5.64441 29.1533C5.72139 29.1533 5.86396 28.9786 5.86396 28.8845C5.87194 27.7788 5.8722 26.6728 5.87245 25.5669C5.87261 24.8954 5.87276 24.224 5.87465 23.5527C5.87536 23.2968 5.76416 23.2319 5.5268 23.2333C4.42783 23.2384 3.32855 23.239 2.22917 23.2396C1.64311 23.2399 1.05618 23.2402 0.470087 23.2412C0.365636 23.2412 0.261185 23.249 0.152732 23.2571C0.104359 23.2608 0.0549406 23.2645 0.00461906 23.2675V29.1008Z" fill="#191919"/>
<path d="M17.9365 14.8791V14.878C17.9369 14.6418 17.9373 14.4053 17.9373 14.1692L17.9352 14.1685C17.9352 13.9182 17.9344 13.6678 17.9337 13.4175V13.4164C17.9318 12.7796 17.9299 12.1421 17.9401 11.5054C17.9444 11.2417 17.8439 11.191 17.603 11.1925C15.8359 11.201 14.0696 11.2003 12.3025 11.1903C12.0494 11.1889 11.981 11.263 11.9824 11.5168C11.9946 13.2803 11.9946 15.0445 11.9839 16.808C11.9824 17.0561 12.0366 17.1402 12.2975 17.1388C14.0767 17.1288 15.8552 17.1295 17.6336 17.1388C17.8717 17.1402 17.9444 17.0646 17.9416 16.8323C17.9343 16.1815 17.9354 15.53 17.9365 14.8791Z" fill="#191919"/>
<path fill-rule="evenodd" clip-rule="evenodd" d="M71.5731 21.3487C70.8054 21.3323 70.0591 21.1925 69.3691 20.8532C68.662 20.5061 68.1923 19.9266 67.9185 19.1895C67.4809 18.0141 67.4801 16.7995 67.7688 15.6148C68.0055 14.6425 68.5472 13.8598 69.5694 13.4364C70.4661 13.0643 71.3571 13.018 72.2838 13.1185C72.361 13.1269 72.4392 13.134 72.5178 13.1411C72.8392 13.1702 73.1663 13.1998 73.4493 13.3224C74.0466 13.5804 74.5833 13.9582 74.949 14.5284C75.577 15.5071 75.6383 16.5949 75.5863 17.7112C75.5514 18.4682 75.3603 19.1717 74.9597 19.8147C74.6083 20.3778 74.1236 20.7527 73.482 20.9744C72.8576 21.1904 72.2375 21.3586 71.5731 21.3487ZM69.4005 16.7603C69.4005 16.8505 69.4014 16.9407 69.4023 17.0309V17.0319C69.4043 17.2255 69.4063 17.4197 69.399 17.6128C69.3712 18.3377 69.5908 18.975 70.1511 19.4383C70.3891 19.635 70.7192 19.7769 71.0257 19.8211C71.5354 19.8945 72.0607 19.8981 72.5775 19.8803C73.4856 19.8489 73.7401 19.4704 73.8171 18.7604C73.8705 18.2693 73.8876 17.7682 73.8549 17.2756C73.8192 16.7403 73.7529 16.1986 73.6161 15.6811C73.4706 15.1315 73.0358 14.7423 72.5112 14.6175C71.7086 14.4258 70.8746 14.4123 70.057 14.6047C69.923 14.6361 69.7448 14.7095 69.6934 14.8157C69.5637 15.0809 69.4497 15.3703 69.4119 15.6604C69.379 15.9125 69.3865 16.1702 69.394 16.4276C69.3972 16.5384 69.4005 16.65 69.4005 16.7603Z" fill="#191919"/>
<path d="M17.8725 26.9874C17.873 26.7485 17.8734 26.5096 17.8734 26.2706L17.8741 26.2699H17.8642C17.8642 26.0232 17.8639 25.7765 17.8636 25.5297C17.8629 24.8883 17.8622 24.2469 17.8663 23.6054C17.867 23.4187 17.8649 23.2932 17.6104 23.2946C15.8426 23.3046 14.0748 23.3025 12.3071 23.2961C12.1003 23.2954 12.0483 23.3581 12.049 23.5627C12.0569 25.339 12.0554 27.1146 12.0469 28.8909C12.0462 29.0855 12.1018 29.1283 12.2907 29.1276C14.0698 29.119 15.849 29.1183 17.6282 29.1262C17.8121 29.1269 17.8798 29.0998 17.8777 28.8988C17.8699 28.2617 17.8712 27.6245 17.8725 26.9874Z" fill="#191919"/>
<path d="M37.0541 13.0622C36.1285 13.0529 35.3013 13.3328 34.5438 14.0221C34.53 13.9681 34.5168 13.9213 34.505 13.8792C34.4826 13.7999 34.4649 13.7371 34.4566 13.6731C34.4102 13.3124 34.2278 13.137 33.8621 13.1185C33.8193 13.1162 33.776 13.118 33.7328 13.1199C33.6682 13.1226 33.604 13.1253 33.542 13.1142C33.2498 13.0622 33.1756 13.1876 33.1778 13.4642C33.1857 14.5801 33.1846 15.6964 33.1835 16.8125V16.8136C33.1832 17.2014 33.1828 17.5893 33.1828 17.977C33.1828 18.213 33.1826 18.4489 33.1824 18.6848C33.182 19.3135 33.1816 19.9423 33.1842 20.571C33.1856 20.8725 33.4187 21.1719 33.6554 21.179C33.7711 21.1825 33.887 21.1811 34.0028 21.1797C34.1694 21.1777 34.3358 21.1757 34.5015 21.1883C34.7916 21.2104 34.89 21.1156 34.8871 20.8133C34.875 19.4804 34.8778 18.1469 34.8807 16.8137L34.8821 16.123C34.8822 16.0842 34.8821 16.0452 34.882 16.0061V16.0051C34.8812 15.7838 34.8804 15.5603 34.9227 15.3468C34.9833 15.0438 35.066 14.681 35.4153 14.6104C36.2186 14.4486 37.0334 14.4108 37.8389 14.6268C38.2787 14.7444 38.5994 15.0452 38.6907 15.4665C38.8062 16.0025 38.8404 16.5614 38.8575 17.1124C38.8737 17.6352 38.8808 18.1583 38.8879 18.6814C38.8969 19.3529 38.906 20.0243 38.9345 20.695C38.9416 20.8597 39.1654 21.127 39.3215 21.1526C39.6059 21.1993 39.8989 21.1907 40.1988 21.1819C40.3197 21.1783 40.4424 21.1747 40.5654 21.1747C40.57 21.1341 40.5752 21.0968 40.5801 21.0618C40.5897 20.9928 40.5982 20.9323 40.5982 20.8718C40.6003 19.3791 40.6025 17.8872 40.5982 16.3946C40.596 15.7338 40.472 15.098 40.2061 14.4871C39.8818 13.7408 39.3009 13.2967 38.5296 13.1442C38.1313 13.0653 37.7158 13.0644 37.3039 13.0634C37.2204 13.0632 37.1371 13.063 37.0541 13.0622Z" fill="#191919"/>
<path d="M79.0088 13.9347C79.1675 13.8539 79.3229 13.7711 79.4768 13.689C79.8383 13.4964 80.1918 13.308 80.5615 13.1591C80.813 13.058 81.1156 13.06 81.4 13.0618L81.4603 13.0622C81.5188 13.0624 81.5773 13.0625 81.6359 13.0626C82.0841 13.0632 82.5363 13.0639 82.9744 13.137C83.9345 13.2981 84.6195 14.0031 84.8954 14.9861C85.1081 15.7444 85.0976 16.5049 85.0871 17.2658C85.0831 17.5528 85.0791 17.8398 85.0872 18.1267C85.1008 18.6184 85.098 19.1103 85.0953 19.6021V19.6031C85.093 20.0116 85.0907 20.42 85.0978 20.8283C85.1028 21.1134 85.0059 21.2068 84.7307 21.1868C84.5561 21.1745 84.3806 21.1755 84.2052 21.1766C84.0978 21.1772 83.9904 21.1779 83.8832 21.1754C83.6309 21.1697 83.3992 20.9088 83.3963 20.6308C83.3923 20.2213 83.3905 19.8116 83.3888 19.402C83.3844 18.3677 83.38 17.3334 83.3386 16.3005C83.3215 15.8749 83.1476 15.433 82.953 15.0452C82.8553 14.8506 82.5581 14.6624 82.335 14.6404C81.6236 14.5698 80.9036 14.552 80.188 14.5669C79.6968 14.5776 79.421 14.9091 79.4153 15.4187C79.4006 16.7009 79.3913 17.9831 79.382 19.2653C79.3787 19.7231 79.3754 20.1809 79.3718 20.6387C79.3714 20.6873 79.3714 20.7315 79.3713 20.7719C79.3711 20.9858 79.371 21.0895 79.3191 21.139C79.2705 21.1856 79.1761 21.1845 78.9932 21.1823C78.949 21.1817 78.8994 21.1811 78.8443 21.1811C78.6786 21.1811 78.5128 21.1694 78.347 21.1577L78.2434 21.1505C77.8963 21.1277 77.6831 20.916 77.681 20.5731C77.6773 19.9387 77.6779 19.3047 77.6785 18.6705V18.6695C77.6787 18.439 77.6789 18.2083 77.6789 17.9778C77.6789 17.6016 77.6792 17.2255 77.6795 16.8493V16.8483C77.6804 15.7198 77.6814 14.5911 77.6739 13.4628C77.6717 13.1869 77.7444 13.06 78.0381 13.1128C78.104 13.1246 78.1724 13.122 78.2411 13.1193C78.2921 13.1173 78.3434 13.1153 78.3938 13.1192C78.7331 13.147 78.9256 13.3402 78.9612 13.6709C78.9705 13.7553 78.9885 13.8389 79.0003 13.8936C79.0038 13.9102 79.0068 13.9242 79.0088 13.9347Z" fill="#191919"/>
<path d="M57.8466 19.8318C58.028 19.8318 58.2093 19.8316 58.3907 19.8314C58.8139 19.8309 59.2379 19.8305 59.6607 19.8325C59.933 19.8339 60.1911 19.8026 60.3123 19.5139C60.4299 19.233 60.3301 18.6906 60.1569 18.5195C59.8311 18.1987 59.4198 18.079 58.9893 17.9785L58.9011 17.9578C58.0971 17.7694 57.2916 17.5807 56.5001 17.3462C55.7125 17.1131 55.2498 16.3675 55.2064 15.5307C55.1508 14.4686 55.818 13.7522 56.6626 13.4635C57.3256 13.2368 57.9821 13.1049 58.6785 13.1142C59.5446 13.1263 60.4106 13.1249 61.2767 13.1121C61.5076 13.1085 61.616 13.1898 61.6096 13.4086C61.6076 13.4755 61.6085 13.5442 61.6094 13.6131C61.6122 13.8224 61.615 14.0345 61.5383 14.2098C61.467 14.3709 61.204 14.4921 61.0044 14.5406C60.8165 14.586 60.615 14.5809 60.4149 14.5758C60.3516 14.5742 60.2885 14.5726 60.226 14.5726C59.3243 14.5726 58.4226 14.5726 57.5216 14.5612C57.2764 14.5577 57.0198 14.604 56.9756 14.8407C56.9221 15.1244 56.9 15.4786 57.0269 15.716C57.1951 16.0311 57.5743 16.1494 57.9407 16.2256C58.6086 16.3661 59.278 16.5093 59.9359 16.6911C60.7243 16.9078 61.4777 17.2122 61.8705 18.0055C62.1271 18.5238 62.1328 19.0862 61.9083 19.6058C61.4157 20.7442 60.4192 21.0999 59.2801 21.1583C58.2809 21.2098 57.2806 21.2345 56.2801 21.2593L55.9541 21.2674C55.3133 21.2831 55.118 21.0015 55.3126 20.3778C55.453 19.928 55.5621 19.8489 56.0689 19.8467C56.4638 19.8453 56.859 19.8458 57.2542 19.8463H57.2552C57.4524 19.8465 57.6496 19.8467 57.8466 19.8467V19.8318Z" fill="#191919"/>
<path d="M42.1294 13.1109C41.943 13.1228 41.75 13.135 41.5515 13.1156L41.5508 13.1142C41.5941 13.2471 41.6334 13.374 41.6713 13.4964L41.6717 13.4976C41.7533 13.7614 41.8285 14.0041 41.9229 14.239C42.1023 14.6863 42.2892 15.1303 42.4761 15.5743C42.6248 15.9274 42.7738 16.2814 42.9187 16.6362C43.0484 16.9541 43.1727 17.2741 43.297 17.5943C43.4063 17.8758 43.5156 18.1574 43.6286 18.4375C43.7512 18.7415 43.8763 19.0446 44.0014 19.3476L44.0018 19.3486C44.2118 19.8576 44.4219 20.3665 44.6202 20.8796C44.7085 21.1084 44.839 21.2025 45.0664 21.1961C45.1519 21.1935 45.2378 21.1873 45.3238 21.181C45.4992 21.1682 45.6747 21.1553 45.8469 21.174C46.5341 21.2481 46.8933 20.8418 47.1293 20.3022C47.388 19.7111 47.6339 19.1145 47.8797 18.5178L47.8801 18.5168L47.8806 18.5158C48.0848 18.0201 48.289 17.5244 48.5007 17.0318C48.7539 16.4424 49.0128 15.8554 49.2717 15.2683C49.5463 14.6457 49.8211 14.0227 50.0889 13.3972C50.1174 13.3316 50.0112 13.1242 49.9599 13.1213L49.8808 13.1168C49.5515 13.0978 49.215 13.0783 48.8956 13.137C48.5506 13.2012 48.1942 13.3259 48.0231 13.693C47.9967 13.7499 47.97 13.8067 47.9433 13.8636C47.8307 14.1032 47.7178 14.3435 47.6268 14.5912C47.2472 15.6234 46.8726 16.6572 46.498 17.691C46.3436 18.1171 46.1892 18.5432 46.0344 18.9693C45.9911 19.0885 45.9469 19.2074 45.8965 19.3433C45.8664 19.4243 45.8341 19.5113 45.7984 19.608C45.7703 19.5574 45.7462 19.5169 45.7256 19.4823C45.6899 19.4224 45.6648 19.3801 45.648 19.3349C45.4992 18.9309 45.3527 18.5254 45.2063 18.12L45.107 17.8452C45.0446 17.6728 44.982 17.5004 44.9194 17.3281L44.9188 17.3263L44.9184 17.3254C44.7546 16.8743 44.5907 16.4231 44.4306 15.9705C44.3535 15.7528 44.2798 15.5337 44.2061 15.3146C44.0487 14.8468 43.8911 14.3782 43.7013 13.924C43.5966 13.6738 43.3663 13.4442 43.1382 13.2832C42.8316 13.0665 42.4928 13.0879 42.1294 13.1109Z" fill="#191919"/>
<path d="M53.31 17.2984C53.31 17.6227 53.3089 17.9469 53.3079 18.2712C53.3051 19.1074 53.3024 19.9436 53.3178 20.7798C53.3242 21.1198 53.2095 21.2232 52.8923 21.1868C52.7628 21.1719 52.6323 21.1681 52.5019 21.1643C52.4085 21.1615 52.3145 21.1588 52.2215 21.1519C51.8394 21.1234 51.617 20.891 51.617 20.5061C51.6159 19.6 51.6159 18.6938 51.6159 17.7877C51.6158 16.3372 51.6157 14.8868 51.6113 13.4364C51.6106 13.1691 51.6969 13.0672 51.9656 13.1099C52.1073 13.1325 52.25 13.1492 52.3928 13.166C52.5832 13.1883 52.7736 13.2105 52.9614 13.2468C53.2665 13.306 53.315 13.5419 53.3135 13.8178C53.3086 14.625 53.3091 15.4322 53.3097 16.2394C53.3099 16.5927 53.3102 16.9452 53.31 17.2984Z" fill="#191919"/>
<path d="M63.9049 16.0079L63.9049 16.0136C63.9042 16.3385 63.9035 16.6642 63.9035 16.9891H63.9021C63.9021 17.3669 63.902 17.7448 63.9018 18.1225L63.9018 18.1494C63.9015 18.9225 63.9012 19.6964 63.9021 20.4697C63.9028 20.9245 64.0789 21.1191 64.5351 21.1548C64.6696 21.1651 64.8047 21.168 64.9398 21.1709C65.0646 21.1735 65.1893 21.1761 65.3135 21.1847C65.5323 21.2004 65.5993 21.1063 65.5993 20.8953C65.598 20.1729 65.5978 19.4506 65.5976 18.7283C65.5972 17.0709 65.5968 15.4137 65.5829 13.7565C65.5815 13.5875 65.4218 13.3252 65.2757 13.2717C65.0746 13.1986 64.8558 13.1757 64.6362 13.1527C64.5197 13.1405 64.4029 13.1283 64.2884 13.1085C63.9848 13.0565 63.895 13.1748 63.8985 13.4728C63.9083 14.3176 63.9066 15.1629 63.9049 16.0079Z" fill="#191919"/>
<path fill-rule="evenodd" clip-rule="evenodd" d="M79.0178 29.0566L78.7223 28.6505C78.4739 28.3091 78.235 27.9807 78.0137 27.677C78.1091 27.6122 78.1967 27.5567 78.2774 27.5056C78.4361 27.4051 78.5683 27.3214 78.6802 27.2165C79.0252 26.8929 79.0153 26.4631 78.8948 26.0604C78.7872 25.6997 78.4714 25.4252 78.1249 25.3889C77.5657 25.3298 76.997 25.3467 76.431 25.3636C76.3348 25.3664 76.2386 25.3693 76.1426 25.3718C76.0642 25.3732 75.9245 25.5314 75.9231 25.6191C75.9052 26.7297 75.9045 27.841 75.9152 28.9515C75.9162 29.004 75.9771 29.0561 76.0381 29.1084C76.0666 29.1328 76.0952 29.1572 76.1177 29.1818C76.1429 29.1568 76.1734 29.1327 76.2038 29.1087C76.2706 29.0561 76.3374 29.0035 76.3486 28.9408C76.3713 28.818 76.3633 28.6896 76.3553 28.5609C76.3515 28.4993 76.3477 28.4374 76.3472 28.3763C76.3439 27.9068 76.5793 27.6699 77.0536 27.6656C77.3002 27.6635 77.4884 27.7148 77.6409 27.9536C77.835 28.2579 78.0641 28.5408 78.2927 28.8229C78.3463 28.889 78.3998 28.9551 78.4528 29.0214C78.6338 29.2479 78.8326 29.2744 79.0178 29.0566ZM77.1755 25.7631V25.7417C77.1223 25.7417 77.0685 25.7389 77.0146 25.7361C76.8887 25.7295 76.7629 25.723 76.6466 25.7524C76.5318 25.7816 76.3679 25.9043 76.3572 25.9998C76.3194 26.3384 76.3165 26.6848 76.3493 27.0241C76.3593 27.1253 76.5232 27.2843 76.6259 27.2907C77.0015 27.3163 77.3865 27.3277 77.755 27.2664C77.9745 27.2301 78.2119 27.0875 78.3666 26.9229C78.8064 26.4545 78.3366 25.7888 77.8127 25.7645C77.6679 25.7577 77.5224 25.7596 77.3769 25.7614C77.3097 25.7623 77.2426 25.7631 77.1755 25.7631Z" fill="#191919"/>
<path d="M82.4867 26.8213C82.4857 26.9747 82.4847 27.128 82.4847 27.2814L82.484 27.2821C82.484 27.4367 82.4848 27.5914 82.4856 27.7462V27.7472C82.4876 28.1355 82.4896 28.5252 82.479 28.913C82.4733 29.1319 82.5873 29.1868 82.7577 29.1868L82.8245 29.1869C83.5605 29.1883 84.2978 29.1897 85.033 29.1689C85.0948 29.167 85.1547 29.0988 85.2146 29.0306C85.2424 28.999 85.2701 28.9673 85.2981 28.9423C85.2697 28.9232 85.2414 28.8993 85.213 28.8754C85.1502 28.8226 85.0873 28.7696 85.023 28.7676C84.6707 28.757 84.3176 28.7604 83.9647 28.7637C83.8199 28.7651 83.6751 28.7665 83.5304 28.7669C83.1155 28.7679 82.9143 28.5552 82.9266 28.1289L82.9281 28.0836C82.9315 27.9802 82.9349 27.8758 82.9238 27.774C82.8952 27.5109 82.9915 27.4154 83.2673 27.4304C83.7399 27.4568 84.2154 27.4589 84.688 27.4361C84.771 27.4322 84.8511 27.3663 84.9311 27.3005C84.9678 27.2703 85.0045 27.24 85.0415 27.2158C85.0052 27.1981 84.9691 27.1762 84.9329 27.1542C84.8543 27.1064 84.7757 27.0586 84.6951 27.0547C84.3998 27.041 84.1034 27.0436 83.807 27.0462C83.6884 27.0473 83.5698 27.0483 83.4512 27.0483C82.9059 27.0483 82.9059 27.0476 82.9306 26.5198L82.9309 26.5137C82.9373 26.3726 82.938 26.2286 82.9202 26.0889C82.8853 25.8194 82.9936 25.7339 83.2609 25.7424C83.8526 25.7617 84.4456 25.7624 85.038 25.7467C85.0974 25.7453 85.1556 25.6831 85.2135 25.6212C85.2403 25.5925 85.2671 25.564 85.2939 25.5414C85.2691 25.5216 85.2444 25.4965 85.2197 25.4715C85.1665 25.4174 85.1134 25.3635 85.0594 25.3625C84.457 25.3523 83.8547 25.3543 83.2524 25.3562L82.784 25.3575C82.5666 25.3582 82.4711 25.4473 82.479 25.6847C82.4916 26.0633 82.4892 26.4422 82.4867 26.8213Z" fill="#191919"/>
<path d="M33.5555 25.354C33.636 25.6434 33.5726 25.7645 33.3003 25.7574C33.0468 25.7509 32.7931 25.7495 32.5394 25.7481C32.2122 25.7464 31.885 25.7446 31.5582 25.7317C31.34 25.7232 31.2502 25.7809 31.2552 26.0019C31.2598 26.2301 31.2505 26.4596 31.2412 26.688L31.2388 26.7454C31.2296 26.9742 31.3329 27.059 31.5617 27.054C32.0714 27.0426 32.5818 27.0398 33.0907 27.0597C33.1587 27.0622 33.2244 27.1204 33.29 27.1785C33.32 27.2051 33.35 27.2317 33.3801 27.2529C33.3479 27.2738 33.3158 27.3003 33.2837 27.3268C33.2151 27.3835 33.1466 27.4401 33.0772 27.4411C32.8273 27.4452 32.577 27.4393 32.3267 27.4333C32.0559 27.4269 31.7851 27.4205 31.5147 27.4268C31.427 27.429 31.2795 27.5751 31.2681 27.6685C31.2496 27.8193 31.2533 27.9727 31.257 28.1262C31.2598 28.2453 31.2627 28.365 31.2552 28.4832C31.2395 28.7313 31.3486 28.7805 31.5724 28.7762C32.0463 28.767 32.5201 28.7688 32.9919 28.7705C33.1798 28.7712 33.3684 28.7719 33.5555 28.7719C33.6595 29.1404 33.6225 29.1875 33.281 29.1853L32.9666 29.1832C32.372 29.179 31.777 29.1749 31.1825 29.1882C30.9188 29.1939 30.8318 29.1233 30.8361 28.8482C30.8443 28.3214 30.8443 27.7946 30.8443 27.2679C30.8443 26.7412 30.8443 26.2147 30.8525 25.6883C30.8539 25.5764 30.9808 25.3718 31.0535 25.3696C31.7031 25.3517 32.3531 25.3531 33.0119 25.3546C33.1921 25.355 33.3737 25.3554 33.5555 25.3554V25.354Z" fill="#191919"/>
<path d="M24.058 26.86C24.0589 26.9993 24.0597 27.1386 24.0597 27.2778L24.059 27.2771H24.0554C24.0554 27.4129 24.0547 27.5488 24.0541 27.6848C24.0521 28.0931 24.0501 28.5021 24.0661 28.9095C24.069 28.9755 24.1355 29.0389 24.2017 29.1021C24.232 29.131 24.2622 29.1599 24.2864 29.1889C24.3072 29.1599 24.3333 29.1312 24.3594 29.1026C24.4154 29.0412 24.4711 28.98 24.4745 28.9159C24.4952 28.5267 24.4902 28.1346 24.4781 27.7447C24.471 27.5252 24.5579 27.4575 24.7725 27.4632C25.2822 27.4767 25.7925 27.4867 26.3015 27.4632C26.618 27.4482 26.6957 27.5893 26.6828 27.8645C26.6664 28.2188 26.6501 28.5745 26.6686 28.928C26.672 28.9887 26.7373 29.0464 26.8026 29.1041C26.8323 29.1303 26.8621 29.1567 26.886 29.1832C26.9098 29.1569 26.9401 29.1306 26.9703 29.1044C27.0359 29.0474 27.1017 28.9903 27.1027 28.9323C27.1184 27.8203 27.1184 26.7083 27.1055 25.5963C27.1051 25.5435 27.0446 25.491 26.9839 25.4383C26.9554 25.4136 26.9269 25.3888 26.9045 25.3639C26.8783 25.3888 26.8456 25.4133 26.8129 25.4377C26.7417 25.491 26.6706 25.5441 26.6672 25.6013C26.6472 25.9534 26.6536 26.3091 26.6836 26.6613C26.7064 26.93 26.6394 27.0676 26.3464 27.0626C25.8253 27.0533 25.3035 27.0519 24.7818 27.0626C24.5244 27.0683 24.451 26.9485 24.461 26.7147C24.4703 26.5021 24.4733 26.2892 24.4762 26.0762C24.4781 25.9466 24.4799 25.8165 24.4831 25.6868L24.4837 25.6637C24.4877 25.5103 24.4922 25.3358 24.2792 25.3704C24.1916 25.3846 24.0739 25.5692 24.0697 25.6804C24.0533 26.0731 24.0557 26.4666 24.058 26.86Z" fill="#191919"/>
<path d="M55.5687 27.2657C55.5687 27.1296 55.5681 26.9934 55.5676 26.8573C55.5658 26.4491 55.5641 26.0406 55.578 25.6334C55.5799 25.5705 55.6388 25.5097 55.6975 25.449C55.7247 25.4209 55.7519 25.3929 55.7733 25.3646C55.7995 25.3932 55.8325 25.4212 55.8654 25.4493C55.9361 25.5096 56.0068 25.5699 56.0107 25.6341C56.0321 25.9869 56.0206 26.3441 55.9943 26.6969C55.9743 26.9614 56.0705 27.0668 56.3336 27.0626C56.8554 27.054 57.3778 27.0519 57.8996 27.0626C58.1855 27.0683 58.2739 26.9457 58.2532 26.6727C58.2275 26.3312 58.2175 25.9862 58.2396 25.6448C58.244 25.5778 58.3112 25.5148 58.3785 25.4517C58.4093 25.4228 58.4401 25.394 58.4649 25.3646C58.4878 25.3923 58.5168 25.4198 58.5459 25.4472C58.6082 25.5062 58.6704 25.565 58.6709 25.6248C58.6859 26.7254 58.6866 27.8267 58.6737 28.9273C58.6733 28.9861 58.6104 29.0439 58.5475 29.1019C58.5181 29.1289 58.4887 29.156 58.4656 29.1832C58.4407 29.1538 58.4095 29.1247 58.3783 29.0957C58.3112 29.0332 58.2442 28.9709 58.2404 28.9052C58.2241 28.6184 58.2334 28.3304 58.2426 28.0427L58.2426 28.0414C58.2451 27.9627 58.2476 27.884 58.2496 27.8053C58.256 27.5722 58.1676 27.4589 57.9139 27.4646C57.3921 27.4774 56.8696 27.4789 56.3485 27.4646C56.0991 27.4575 56.0014 27.5516 56.0078 27.7939C56.0121 27.9468 56.0123 28.0997 56.0125 28.2527C56.0128 28.4551 56.013 28.6574 56.0228 28.8596C56.0313 29.0435 55.9886 29.1768 55.7925 29.1803C55.5858 29.1839 55.5673 29.0513 55.5737 28.8653C55.587 28.4837 55.5845 28.1018 55.5821 27.72C55.5811 27.5693 55.5801 27.4178 55.5801 27.2672H55.5694L55.5687 27.2657Z" fill="#191919"/>
<path fill-rule="evenodd" clip-rule="evenodd" d="M69.0607 28.2566L69.0587 28.2609C68.9337 28.5404 68.8081 28.821 68.6816 29.1026L68.6824 29.1019C69.0345 29.2338 69.0815 29.2138 69.2155 28.8988C69.2348 28.8536 69.2524 28.8069 69.2701 28.76C69.3155 28.6392 69.3612 28.5178 69.4372 28.4212C69.537 28.295 69.696 28.1432 69.8378 28.1339C70.3453 28.1019 70.8579 28.1054 71.3654 28.1411C71.5058 28.151 71.6698 28.2943 71.761 28.4212C71.8202 28.5034 71.8564 28.6018 71.8927 28.7004C71.9262 28.7916 71.9598 28.8831 72.0119 28.9622C72.0789 29.0642 72.2179 29.1326 72.3391 29.1803C72.3918 29.201 72.4945 29.1468 72.5444 29.0969C72.5658 29.0756 72.5209 28.9758 72.4931 28.9173C72.4477 28.8228 72.4003 28.7293 72.3529 28.6357C72.2903 28.512 72.2274 28.388 72.1694 28.2622C72.0324 27.9649 71.8963 27.6671 71.7601 27.3692C71.4827 26.7624 71.2053 26.1555 70.9199 25.5521C70.8693 25.4459 70.7103 25.2998 70.6348 25.3169C70.4972 25.3483 70.3275 25.4623 70.2698 25.587C69.8603 26.4695 69.4628 27.3578 69.0607 28.2566ZM70.5713 27.7476V27.7782C70.5136 27.7782 70.4566 27.7787 70.3989 27.7792C70.2672 27.7802 70.1352 27.7813 70.0039 27.7768C69.7787 27.7683 69.7494 27.6285 69.825 27.4589C70.0232 27.012 70.2313 26.5686 70.4402 26.1266C70.4672 26.0689 70.5193 25.9926 70.5692 25.9848C70.6155 25.977 70.6989 26.0383 70.7239 26.0896L70.7651 26.1748C70.9561 26.5691 71.1474 26.964 71.3169 27.3677C71.4495 27.6841 71.3789 27.7604 71.0318 27.7483C70.9269 27.7449 70.8217 27.7458 70.7166 27.7467L70.6738 27.7471C70.6396 27.7474 70.6054 27.7476 70.5713 27.7476Z" fill="#191919"/>
<path fill-rule="evenodd" clip-rule="evenodd" d="M38.5736 25.2435C38.9899 25.3227 39.0871 25.5924 39.1782 25.845C39.2059 25.922 39.2331 25.9974 39.2686 26.0653C39.4446 26.4027 39.5939 26.7536 39.7432 27.1045C39.8236 27.2934 39.904 27.4824 39.9885 27.6692C40.0677 27.8441 40.1504 28.0175 40.2332 28.1909C40.3463 28.4279 40.4596 28.6655 40.5637 28.9066C40.5843 28.9537 40.5597 29.0204 40.5351 29.0869C40.524 29.117 40.5129 29.1471 40.506 29.1754C40.473 29.1666 40.435 29.1612 40.397 29.1559C40.3146 29.1442 40.2324 29.1326 40.2016 29.0863C40.0455 28.8539 39.9101 28.6044 39.8017 28.3464C39.7148 28.1389 39.59 28.1125 39.3855 28.1247C39.0734 28.1429 38.7601 28.1389 38.4468 28.1348C38.3565 28.1336 38.2661 28.1324 38.1758 28.1318C37.6647 28.1282 37.5792 28.1938 37.3988 28.6935C37.3475 28.8353 37.2777 28.9822 37.1764 29.0891C37.1332 29.1348 37.0543 29.1466 36.9754 29.1585C36.9399 29.1638 36.9044 29.1691 36.8721 29.1775C36.8703 29.1447 36.8647 29.1103 36.8592 29.0758C36.8473 29.0017 36.8354 28.9277 36.8607 28.8703C37.2598 27.9707 37.6661 27.074 38.0817 26.1815C38.1866 25.9566 38.3052 25.7377 38.4192 25.5273L38.4197 25.5264C38.4721 25.4297 38.5235 25.3349 38.5721 25.242L38.5736 25.2435ZM38.7069 27.7633V27.7732C38.7728 27.7732 38.8388 27.7739 38.9047 27.7745C39.051 27.7759 39.1975 27.7772 39.3434 27.7718C39.5401 27.7647 39.5822 27.687 39.4852 27.4981C39.3675 27.2678 39.2592 27.0326 39.1509 26.7973C39.0699 26.6212 38.9887 26.4448 38.9036 26.2706C38.8753 26.2131 38.8261 26.1656 38.7768 26.1181C38.754 26.0961 38.7312 26.0741 38.7104 26.0511C38.6878 26.0719 38.6627 26.0914 38.6376 26.111C38.5826 26.1537 38.5276 26.1966 38.4987 26.2528C38.3824 26.4807 38.272 26.7113 38.1615 26.9419C38.0709 27.1312 37.9802 27.3204 37.8864 27.5081C37.798 27.6841 37.8686 27.7547 38.0347 27.7611C38.1907 27.7676 38.3471 27.7661 38.5033 27.7646C38.5711 27.7639 38.6392 27.7633 38.7069 27.7633Z" fill="#191919"/>
<path d="M65.0715 26.0048C65.1726 26.0521 65.2775 26.1013 65.3868 26.1552L65.3861 26.1544C65.4019 26.1285 65.4327 26.1034 65.4657 26.0766C65.5631 25.9971 65.6793 25.9024 65.4816 25.726C65.3355 25.5949 65.1723 25.4509 64.9912 25.396C64.314 25.1907 63.659 25.1772 63.0117 25.5771C61.9995 26.2022 61.9439 27.9878 62.7351 28.6935C63.0324 28.9587 63.3524 29.1369 63.7702 29.1967C64.4003 29.2873 64.9435 29.1554 65.4267 28.7676C65.4802 28.7248 65.4982 28.6379 65.5163 28.5507C65.5247 28.5102 65.5331 28.4695 65.5451 28.4333C65.5077 28.4347 65.4669 28.4315 65.426 28.4284C65.3366 28.4215 65.2472 28.4146 65.1944 28.4547C64.8964 28.6814 64.5763 28.8147 64.2014 28.8239C63.7374 28.8361 63.314 28.7306 63.0246 28.3449C62.455 27.5858 62.4529 26.9478 62.9953 26.1651C63.222 25.838 64.1137 25.4844 64.4794 25.7032C64.6636 25.8137 64.8595 25.9055 65.0715 26.0048Z" fill="#191919"/>
<path d="M50.9362 27.5138C50.9362 27.6343 50.9371 27.7548 50.938 27.8753C50.9405 28.2166 50.9429 28.5578 50.9255 28.8981C50.9221 28.9652 50.855 29.0293 50.7881 29.0932C50.7577 29.1222 50.7274 29.1512 50.7031 29.1803C50.6802 29.1494 50.6509 29.1186 50.6217 29.0878C50.5593 29.022 50.4969 28.9563 50.4964 28.8902C50.4886 27.9436 50.495 26.9963 50.515 26.0497C50.5207 25.7888 50.3674 25.7517 50.1792 25.7453C50.0884 25.7423 49.9967 25.7462 49.9053 25.7501C49.7585 25.7564 49.612 25.7627 49.4693 25.7403C49.3851 25.7275 49.3097 25.6589 49.2345 25.5905C49.2008 25.5598 49.1672 25.5292 49.1328 25.5036C49.1674 25.4876 49.2018 25.4674 49.2363 25.4471C49.3106 25.4035 49.3848 25.3599 49.4593 25.3589C50.2655 25.3468 51.0724 25.3461 51.8786 25.3597C51.9501 25.3606 52.021 25.4092 52.0917 25.4575C52.1245 25.48 52.1573 25.5024 52.1901 25.52C52.1567 25.5442 52.1243 25.573 52.0918 25.6017C52.0211 25.6644 51.9504 25.7271 51.8707 25.7417C51.6761 25.7774 51.468 25.7645 51.2684 25.7432C50.9911 25.7139 50.9134 25.8401 50.9191 26.0931C50.9266 26.4257 50.925 26.7585 50.9234 27.0915C50.9227 27.2324 50.922 27.3735 50.922 27.5145H50.9355L50.9362 27.5138Z" fill="#191919"/>
<path d="M44.4243 28.7662H46.2541C46.2708 28.7662 46.2882 28.7658 46.3058 28.7654C46.449 28.7623 46.6096 28.7589 46.5842 28.9544C46.5728 29.0449 46.3646 29.1711 46.2435 29.1754C45.8501 29.187 45.4563 29.1843 45.0624 29.1816C44.8045 29.1798 44.5467 29.1781 44.2889 29.1803C44.0801 29.1825 43.9959 29.1205 43.9981 28.8966C44.0081 27.8203 44.0045 26.7447 44.0009 25.6683C44.0009 25.4987 44.0138 25.3254 44.2269 25.3703C44.3096 25.3875 44.4144 25.5642 44.4158 25.6697C44.4269 26.4558 44.4259 27.2419 44.4249 28.0543V28.0577C44.4246 28.2915 44.4243 28.5274 44.4243 28.7662Z" fill="#191919"/>
<path d="M64.7433 12.6694C65.1717 12.6395 65.7042 12.4114 65.598 11.8675C65.5987 11.3614 65.2237 10.9915 64.7183 11.0007C64.2956 11.0086 63.7667 11.4555 63.7468 11.8219C63.7247 12.2325 64.2457 12.7051 64.7433 12.6694Z" fill="#191919"/>
</svg>
