<svg width="102" height="32" viewBox="0 0 102 32" fill="none" xmlns="http://www.w3.org/2000/svg">
<path d="M11.7533 22.3364C11.7533 23.0123 11.635 23.5868 11.4154 24.0768C11.1957 24.5668 10.9085 24.9892 10.5536 25.3441C9.99601 25.9017 9.32012 26.2903 8.52595 26.5269C7.73178 26.7634 6.88692 26.8817 5.99137 26.8817C5.21409 26.8817 4.45372 26.7634 3.71024 26.5438C2.96676 26.3241 2.29087 25.9355 1.68257 25.3948C1.24324 25.0061 0.888395 24.5161 0.601142 23.9416C0.313889 23.3671 0.178711 22.7419 0.178711 22.0491H2.86537C2.86537 22.404 2.93296 22.725 3.08504 23.0292C3.22022 23.3333 3.40609 23.5868 3.62575 23.8064C3.9299 24.1275 4.31854 24.3302 4.75787 24.4316C5.19719 24.533 5.61963 24.5837 6.04206 24.5837C6.54897 24.5837 7.0221 24.533 7.46143 24.4147C7.90075 24.2965 8.27249 24.0937 8.54285 23.8233C8.71182 23.6544 8.847 23.4685 8.94838 23.2657C9.04977 23.0629 9.11736 22.7926 9.11736 22.4378C9.11736 21.9139 8.94838 21.5084 8.59354 21.2549C8.2556 20.9846 7.85006 20.8156 7.41073 20.7311C6.92071 20.6297 6.3969 20.5622 5.8055 20.5284C5.23099 20.4946 4.69028 20.427 4.21715 20.3425C3.71024 20.258 3.25401 20.1228 2.81468 19.9201C2.37535 19.7173 1.98672 19.4469 1.64877 19.1259C1.31083 18.7879 1.05737 18.3993 0.854601 17.9262C0.651834 17.4531 0.567348 16.9292 0.567348 16.3378C0.567348 15.7633 0.685629 15.2564 0.905293 14.7833C1.14185 14.3102 1.446 13.8877 1.81774 13.4991C2.29087 13.026 2.89917 12.6542 3.64265 12.3839C4.38613 12.1135 5.1803 11.9784 6.04206 11.9784C6.81933 11.9784 7.54591 12.0966 8.27249 12.3332C8.98218 12.5698 9.59048 12.9246 10.0636 13.3808C10.5029 13.7864 10.8409 14.2426 11.1112 14.7664C11.3816 15.2733 11.5168 15.8478 11.5337 16.4561H8.847C8.8301 16.2027 8.76251 15.9492 8.66113 15.6958C8.54285 15.4423 8.40767 15.2226 8.2218 15.0368C7.98524 14.8002 7.66419 14.5974 7.24176 14.4622C6.81933 14.3271 6.4138 14.2595 6.02516 14.2595C5.61963 14.2595 5.19719 14.3102 4.77476 14.4285C4.35233 14.5298 3.98059 14.7495 3.69334 15.0537C3.54126 15.2226 3.42298 15.3916 3.3385 15.5775C3.25401 15.7633 3.20332 15.9999 3.20332 16.2703C3.20332 16.7434 3.3385 17.0982 3.60885 17.3517C3.87921 17.6051 4.23405 17.7572 4.65648 17.8248C5.11271 17.8924 5.63652 17.96 6.21103 18.0107C6.78554 18.0614 7.30935 18.129 7.78247 18.1965C8.32319 18.281 8.8301 18.4162 9.32012 18.6359C9.79325 18.8386 10.2157 19.1259 10.5874 19.4638C10.9423 19.8018 11.2295 20.2242 11.4323 20.7142C11.6519 21.1705 11.7533 21.7281 11.7533 22.3364Z" fill="#191919"/>
<path d="M23.0916 26.6277L22.0778 25.4955C21.5033 26.0025 20.8612 26.3911 20.1515 26.6277C19.4587 26.8642 18.7321 26.9994 17.9887 26.9994C17.3466 26.9994 16.7383 26.898 16.1638 26.6952C15.5892 26.4925 15.0823 26.2052 14.643 25.8335C14.2037 25.4617 13.8657 25.0055 13.6123 24.4648C13.3588 23.9241 13.2236 23.3158 13.2236 22.6399C13.2236 21.7444 13.4602 20.984 13.9164 20.3419C14.3895 19.6998 14.9978 19.1591 15.7751 18.6859C15.5386 18.4494 15.3358 18.1959 15.1499 17.9594C14.964 17.7228 14.7951 17.4862 14.6599 17.2328C14.5247 16.9962 14.4233 16.7259 14.3389 16.4555C14.2713 16.1852 14.2206 15.881 14.2206 15.5431C14.2206 14.9686 14.322 14.4616 14.5416 14.0223C14.7444 13.583 15.0316 13.1943 15.3865 12.8733C15.7413 12.5522 16.1469 12.3157 16.6369 12.1467C17.11 11.9777 17.6338 11.9102 18.1745 11.9102C18.6983 11.9102 19.2053 11.9946 19.6784 12.1467C20.1515 12.2988 20.5739 12.5354 20.9457 12.8395C21.3174 13.1437 21.6047 13.5154 21.8243 13.9547C22.044 14.394 22.1454 14.901 22.1454 15.4755C22.1454 15.9486 22.0778 16.371 21.9426 16.7428C21.8074 17.1145 21.6216 17.4524 21.3681 17.7566C21.1315 18.0608 20.8443 18.348 20.5063 18.6015C20.1684 18.8549 19.8136 19.1084 19.4249 19.328L21.9257 22.0485C22.044 21.8119 22.1285 21.5585 22.1792 21.2543C22.2299 20.9502 22.2637 20.6291 22.2975 20.2912C22.3313 19.9701 22.3313 19.6491 22.3313 19.3449V18.5339H26.0486V20.5446H24.3927C24.3589 21.1192 24.2913 21.6768 24.1731 22.2344C24.0548 22.792 23.8351 23.2989 23.531 23.772L26.1838 26.6615C26.1669 26.6277 23.0916 26.6277 23.0916 26.6277ZM17.2621 20.2574C17.0255 20.4095 16.789 20.5446 16.5862 20.6798C16.3834 20.815 16.1975 20.9671 16.0455 21.1529C15.8934 21.3219 15.7751 21.5247 15.6737 21.7444C15.5892 21.964 15.5386 22.2344 15.5386 22.5216C15.5386 22.8934 15.6061 23.2144 15.7582 23.5017C15.8934 23.7889 16.0962 24.0255 16.3327 24.2114C16.5693 24.3972 16.8396 24.5493 17.1607 24.6338C17.4648 24.7352 17.8028 24.769 18.1407 24.769C18.5801 24.769 19.0025 24.7014 19.4418 24.5831C19.8811 24.4648 20.2529 24.2282 20.557 23.8734L17.2621 20.2574ZM19.7798 15.5769C19.7798 15.0699 19.6277 14.6982 19.3235 14.4278C19.0194 14.1575 18.6308 14.0223 18.1745 14.0223C17.7521 14.0223 17.3804 14.1406 17.0593 14.394C16.7383 14.6475 16.5693 15.0192 16.5693 15.5262C16.5693 15.7627 16.62 15.9655 16.7045 16.1683C16.789 16.371 16.9072 16.5569 17.0255 16.7428C17.1607 16.9286 17.2959 17.0976 17.4648 17.2666C17.6338 17.4356 17.7859 17.5876 17.938 17.7397C18.1576 17.6214 18.3773 17.4862 18.597 17.368C18.8166 17.2328 19.0194 17.0976 19.1884 16.9286C19.3573 16.7597 19.5094 16.5738 19.6108 16.3541C19.7291 16.1345 19.7798 15.8641 19.7798 15.5769Z" fill="#191919"/>
<path d="M38.8056 16.8276C38.8056 17.5204 38.7042 18.1456 38.4846 18.7201C38.2649 19.2946 37.9439 19.7678 37.5214 20.1733C37.099 20.5788 36.5583 20.8999 35.9331 21.1195C35.291 21.3392 34.5644 21.4575 33.7365 21.4575H30.6949V26.6111H28.0928V12.2147H33.7365C34.5644 12.2147 35.291 12.333 35.9331 12.5526C36.5752 12.7723 37.099 13.0933 37.5214 13.482C37.9439 13.8875 38.2649 14.3606 38.4846 14.9351C38.7042 15.5096 38.8056 16.1348 38.8056 16.8276ZM36.1697 16.8445C36.1697 16.1517 35.9669 15.5941 35.5614 15.1548C35.1558 14.7155 34.5137 14.5127 33.6351 14.5127H30.6949V19.1595H33.6351C34.5137 19.1595 35.1558 18.9398 35.5614 18.5174C35.9669 18.0949 36.1697 17.5373 36.1697 16.8445Z" fill="#191919"/>
<path d="M54.2329 26.6114L53.9287 25.023C53.8273 25.2258 53.6584 25.4455 53.4387 25.6651C53.219 25.8848 52.9487 26.0876 52.6445 26.2565C52.3404 26.4255 51.9686 26.5776 51.58 26.6959C51.1914 26.8141 50.7689 26.8648 50.3296 26.8648C49.4847 26.8648 48.7075 26.7466 47.9809 26.5269C47.2543 26.2903 46.6122 25.8848 46.0377 25.2765C45.666 24.8879 45.3449 24.4654 45.1084 24.043C44.8718 23.6037 44.6859 23.1474 44.5338 22.6574C44.3987 22.1674 44.2973 21.6605 44.2466 21.1198C44.1959 20.5791 44.1621 20.0214 44.1621 19.43C44.1621 18.8555 44.179 18.2979 44.2297 17.7572C44.2804 17.2165 44.3649 16.7265 44.5001 16.2534C44.6352 15.7802 44.8211 15.324 45.0746 14.8847C45.3111 14.4454 45.6322 14.0398 46.0208 13.6512C46.5784 13.0936 47.2374 12.6711 47.9978 12.4008C48.7582 12.1135 49.5354 11.9784 50.2958 11.9784C51.1914 11.9784 52.0024 12.1304 52.729 12.4177C53.4556 12.7218 54.0639 13.1105 54.5539 13.6174C54.9088 13.9891 55.196 14.3947 55.4495 14.8678C55.686 15.3409 55.8381 15.8816 55.8719 16.5237H53.1852C53.1514 16.2365 53.0839 15.9999 52.9656 15.7971C52.8473 15.5944 52.7121 15.3916 52.56 15.2057C52.0531 14.6312 51.2927 14.3271 50.262 14.3271C49.8396 14.3271 49.4172 14.4116 48.9778 14.5805C48.5385 14.7495 48.1837 14.9861 47.8964 15.3071C47.6598 15.5606 47.4571 15.8647 47.305 16.2027C47.1529 16.5406 47.0346 16.8955 46.967 17.2672C46.8826 17.6389 46.8319 18.0107 46.815 18.3993C46.7981 18.7711 46.7812 19.1259 46.7812 19.4469C46.7812 19.768 46.7981 20.1228 46.815 20.5115C46.8488 20.9001 46.8995 21.2718 46.9839 21.6605C47.0684 22.0322 47.1867 22.404 47.3219 22.7419C47.474 23.0798 47.6598 23.384 47.9133 23.6375C48.2005 23.9416 48.5554 24.1782 48.9778 24.3302C49.4003 24.4823 49.8227 24.5499 50.2451 24.5499C50.7182 24.5499 51.1407 24.4823 51.4955 24.3302C51.8504 24.1782 52.1545 23.9754 52.3911 23.7219C52.7797 23.3164 53.0332 22.894 53.1514 22.4378C53.2697 21.9815 53.3204 21.4746 53.3204 20.9339H49.9579V18.7542H55.9226V26.6283C55.9226 26.6114 54.2329 26.6114 54.2329 26.6114Z" fill="#191919"/>
<path d="M62.2761 26.5937C62.0227 26.6444 61.8368 26.6782 61.7185 26.712C61.6002 26.7289 61.4144 26.7458 61.1609 26.7458C60.2992 26.7458 59.6064 26.5261 59.0657 26.0699C58.5418 25.6306 58.2715 24.904 58.2715 23.8902V11.9269H60.823V23.4508C60.823 23.755 60.8906 24.0085 61.0088 24.1943C61.1271 24.3802 61.4144 24.4647 61.8368 24.4647C61.9382 24.4647 62.0227 24.4647 62.0734 24.4478C62.1241 24.4478 62.1916 24.4309 62.2592 24.4309C62.2761 24.4647 62.2761 26.5937 62.2761 26.5937Z" fill="#191919"/>
<path d="M73.0396 21.3391C73.0396 22.2346 72.9382 22.9781 72.7185 23.5864C72.4989 24.1947 72.1947 24.7354 71.8061 25.2424C71.4343 25.6817 70.9443 26.0703 70.3022 26.3914C69.6601 26.7124 68.9335 26.8814 68.1225 26.8814C67.3114 26.8814 66.5848 26.7124 65.9427 26.3914C65.3006 26.0703 64.7937 25.6817 64.422 25.2424C64.0333 24.7354 63.7292 24.1947 63.5095 23.5864C63.2899 22.9781 63.1885 22.2346 63.1885 21.3391C63.1885 20.4435 63.2899 19.7001 63.5095 19.0918C63.7292 18.4835 64.0333 17.9427 64.422 17.4358C64.7937 16.9965 65.2837 16.6079 65.9427 16.2868C66.5848 15.9658 67.3114 15.7968 68.1225 15.7968C68.9335 15.7968 69.6601 15.9658 70.3022 16.2868C70.9443 16.6079 71.4512 16.9965 71.8061 17.4358C72.1947 17.9427 72.4989 18.4835 72.7185 19.0918C72.9382 19.7001 73.0396 20.4435 73.0396 21.3391ZM70.4543 21.3391C70.4543 20.8322 70.4036 20.359 70.3191 19.8859C70.2177 19.4128 70.015 19.0242 69.7108 18.6693C69.5418 18.4835 69.3053 18.3145 69.0349 18.1962C68.7646 18.061 68.4604 18.0103 68.1056 18.0103C67.7507 18.0103 67.4466 18.0779 67.1762 18.1962C66.9059 18.3145 66.6862 18.4835 66.5003 18.6693C66.1962 19.0073 65.9934 19.4128 65.892 19.8859C65.7907 20.359 65.7569 20.8322 65.7569 21.3391C65.7569 21.846 65.8076 22.3191 65.892 22.7923C65.9934 23.2654 66.1962 23.654 66.5003 23.992C66.6693 24.1778 66.9059 24.3468 67.1762 24.4651C67.4466 24.6003 67.7507 24.6509 68.1056 24.6509C68.4604 24.6509 68.7646 24.5834 69.0349 24.4651C69.3053 24.3299 69.5249 24.1778 69.7108 23.992C70.015 23.654 70.2177 23.2485 70.3191 22.7923C70.4205 22.3191 70.4543 21.8291 70.4543 21.3391Z" fill="#191919"/>
<path d="M84.7496 21.3567C84.7496 22.3536 84.5975 23.2492 84.2765 24.0265C83.9723 24.8037 83.4992 25.4458 82.8571 25.9696C82.5361 26.24 82.1643 26.4597 81.725 26.6117C81.3026 26.7807 80.8126 26.8483 80.2888 26.8483C79.7142 26.8483 79.1397 26.73 78.599 26.5104C78.0583 26.2907 77.6359 25.9359 77.3148 25.4458L77.1459 26.5949H74.9492V11.9618H77.4838V16.8282C77.7204 16.5241 78.0921 16.2875 78.5652 16.0848C79.0384 15.882 79.596 15.7975 80.2381 15.7975C80.7788 15.7975 81.2688 15.8651 81.6912 16.0172C82.1137 16.1692 82.4854 16.372 82.8233 16.6424C84.1244 17.69 84.7496 19.2614 84.7496 21.3567ZM82.1643 21.3229C82.1643 20.8667 82.1137 20.4105 82.0292 19.9542C81.9447 19.5149 81.7588 19.1094 81.4885 18.7545C81.3026 18.518 81.066 18.3321 80.7957 18.1631C80.5253 17.9942 80.1874 17.9266 79.7987 17.9266C79.2918 17.9266 78.8863 18.0279 78.5821 18.2476C78.278 18.4504 78.0245 18.7207 77.8555 19.0587C77.6866 19.3966 77.5683 19.7515 77.5007 20.157C77.4331 20.5625 77.4162 20.9512 77.4162 21.3229C77.4162 21.8298 77.4838 22.3536 77.6021 22.8944C77.7204 23.4351 77.9738 23.8575 78.3287 24.1954C78.4976 24.3644 78.7173 24.4827 78.9539 24.5841C79.1904 24.6855 79.4777 24.7193 79.7987 24.7193C80.1874 24.7193 80.5253 24.6348 80.7957 24.4827C81.066 24.3137 81.3026 24.1279 81.4885 23.8913C81.7588 23.5364 81.9447 23.1309 82.0292 22.6916C82.1305 22.2354 82.1643 21.7791 82.1643 21.3229Z" fill="#191919"/>
<path d="M96.02 26.4935C95.8003 26.5949 95.6144 26.6625 95.4624 26.7132C95.3103 26.7639 95.0737 26.7808 94.7696 26.7808C94.212 26.7808 93.7895 26.6287 93.4854 26.3414C93.1812 26.0373 93.0123 25.6993 92.9785 25.3107C92.7419 25.75 92.3364 26.1218 91.7619 26.4259C91.1874 26.7301 90.5284 26.8991 89.768 26.8991C89.1259 26.8991 88.5683 26.8146 88.0952 26.6287C87.622 26.4428 87.2334 26.2063 86.9124 25.9021C86.5913 25.598 86.3548 25.2431 86.1858 24.8545C86.0168 24.4489 85.9492 24.0434 85.9492 23.6041C85.9492 23.0972 86.0337 22.6578 86.2196 22.2692C86.4054 21.8806 86.6589 21.5426 86.9799 21.2554C87.301 20.9681 87.6896 20.7485 88.1121 20.5964C88.5514 20.4443 89.0076 20.3429 89.5145 20.3091L92.6236 20.0895V19.3967C92.6236 18.8898 92.5054 18.4842 92.2688 18.197C92.0322 17.8928 91.5591 17.7407 90.8325 17.7407C90.2411 17.7407 89.768 17.8759 89.447 18.1294C89.109 18.3828 88.94 18.7546 88.9062 19.2446H86.4561C86.4899 18.6532 86.642 18.1294 86.8786 17.7069C87.1151 17.2676 87.4362 16.9128 87.8248 16.6424C88.2134 16.3721 88.6697 16.1524 89.1935 16.0172C89.7004 15.882 90.258 15.8145 90.8494 15.8145C91.7619 15.8145 92.5729 15.9665 93.2826 16.2876C93.9923 16.6086 94.4992 17.1662 94.8203 17.9604C94.9555 18.2984 95.0399 18.6532 95.0737 19.008C95.1075 19.3798 95.1244 19.7346 95.1244 20.0895V24.0096C95.1244 24.2462 95.1751 24.4321 95.2596 24.5334C95.3441 24.6348 95.4962 24.6855 95.7158 24.6855C95.8172 24.6855 95.9017 24.6855 95.9355 24.6686C95.9693 24.6686 96.0031 24.6686 96.0369 24.6517L96.02 26.4935ZM92.6236 21.9313L89.937 22.134C89.5483 22.1678 89.1935 22.2861 88.8893 22.5227C88.5852 22.7592 88.4162 23.0803 88.4162 23.5196C88.4162 23.9251 88.5683 24.2462 88.8724 24.4827C89.1766 24.7193 89.5314 24.8376 89.9201 24.8376C90.7142 24.8376 91.3732 24.6348 91.8633 24.2124C92.3702 23.8069 92.6067 23.1986 92.6067 22.4213C92.6236 22.4044 92.6236 21.9313 92.6236 21.9313Z" fill="#191919"/>
<path d="M101.596 26.5937C101.343 26.6444 101.157 26.6782 101.039 26.712C100.921 26.7289 100.735 26.7458 100.481 26.7458C99.6195 26.7458 98.9267 26.5261 98.386 26.0699C97.8621 25.6306 97.5918 24.904 97.5918 23.8902V11.9269H100.143V23.4508C100.143 23.755 100.211 24.0085 100.329 24.1943C100.447 24.3802 100.735 24.4647 101.157 24.4647C101.258 24.4647 101.343 24.4647 101.394 24.4478C101.444 24.4478 101.512 24.4309 101.58 24.4309L101.596 26.5937Z" fill="#191919"/>
<path d="M101.596 5H0.212891V7.33182H101.596V5Z" fill="#191919"/>
</svg>
