<svg width="66" height="17" viewBox="0 0 66 17" fill="none" xmlns="http://www.w3.org/2000/svg">
<g clip-path="url(#clip0_2198_20157)">
<path d="M8.00945 1.4313C3.7227 1.49853 0.578125 4.3807 0.578125 8.88793C0.578125 13.4132 3.69379 16.1024 8.00945 16.2325C10.3372 16.3048 12.101 15.7554 13.8576 14.8084V7.80359H8.39258L8.19017 10.247H11.1034V13.2253C10.2866 13.594 9.35403 13.7819 8.03114 13.7458C5.23355 13.6735 3.43499 11.6566 3.46969 8.72889C3.50584 6.03251 5.13234 4.0648 7.82873 3.93974C9.48415 3.86456 10.8649 4.33516 11.8046 5.13612L13.6335 3.28552C12.1155 1.94311 10.1854 1.39877 8.00945 1.4313V1.4313ZM32.1613 3.53275V12.6614C32.1613 14.9241 32.8697 16.0518 35.3203 16.0518C35.9926 16.0518 36.5275 15.9723 37.1492 15.7988L37.3299 13.6301C36.7733 13.818 36.3396 13.8614 35.9347 13.8614C35.0022 13.8614 34.7564 13.3626 34.7564 12.459V8.48311H37.1492L37.3299 6.24215H34.7564V3.53275H32.1613ZM19.6697 5.99636C18.1588 5.99636 16.7348 6.42287 15.3757 7.53612L16.8649 9.04697C17.5588 8.39636 18.4914 8.02769 19.4384 8.02769C20.754 8.02769 21.448 8.59877 21.448 9.66142V9.76986H20.9998C18.7082 9.76986 15.0504 10.0084 15.101 13.2036C15.1733 15.2349 16.8143 16.1168 18.5854 16.1168C19.7564 16.1168 20.9058 15.7915 21.607 14.9241L21.6793 15.8711H23.9781V9.56745C23.9781 7.38431 22.6697 5.99636 19.6914 5.99636H19.6697ZM43.836 5.99636C42.4191 5.99636 41.4649 6.63974 40.9444 7.46383L40.8721 6.24215H38.4793V15.8711H41.0745V10.6301C41.0745 9.41564 41.6384 8.36745 43.0841 8.36745C44.5878 8.36745 44.6673 9.71925 44.6673 10.7891V15.8711H47.2841V9.81323C47.2841 7.86865 46.4528 5.99636 43.8287 5.99636H43.836ZM53.4143 5.99636C50.6167 5.99636 48.4697 8.03492 48.4697 11.0566C48.4697 14.0855 50.6311 16.1168 53.5299 16.1168C55.1781 16.1168 56.6167 15.5674 57.8239 14.0855L56.1251 12.7988C55.2721 13.6662 54.6359 14.006 53.4649 13.9699C52.2576 13.9699 51.2745 13.1891 51.0649 11.9602H58.207V11.194C58.207 7.87588 56.501 5.99636 53.4143 5.99636ZM25.5829 6.24215V15.8711H28.207V10.7891C28.207 9.66142 28.9372 8.48311 30.3974 8.48311H31.0986L31.301 6.24215H30.6432C29.5299 6.24215 28.6335 6.61805 28.1131 7.44215L28.0408 6.24215H25.5757H25.5829ZM59.3781 6.24215V15.8711H61.9805V10.7891C61.9805 9.66142 62.7251 8.48311 64.1926 8.48311H65.1179L65.2986 6.24215H64.4167C63.3034 6.24215 62.3998 6.61805 61.8866 7.44215L61.8143 6.24215H59.3492H59.3781ZM53.3492 8.02769C54.607 7.9554 55.5251 8.73612 55.6046 9.95058H51.0649C51.2384 8.88793 52.0841 8.07829 53.3492 8.02769V8.02769ZM21.0866 11.6711H21.448V12.0759C21.448 14.2662 17.7107 14.8373 17.7034 13.0229C17.7034 11.7361 19.8576 11.6711 21.0866 11.6711V11.6711ZM64.3299 13.4494C63.6143 13.4494 63.0143 13.9988 63.0143 14.7433C63.0143 15.4879 63.6143 16.0518 64.3299 16.0518C65.0311 16.0518 65.6384 15.4879 65.6384 14.7433C65.6384 13.9988 65.0384 13.4494 64.3299 13.4494ZM64.3299 13.6807C64.9155 13.6807 65.3926 14.1289 65.3926 14.7433C65.3926 15.365 64.9155 15.8277 64.3299 15.8277C63.7372 15.8277 63.2673 15.365 63.2673 14.7433C63.2673 14.1289 63.7372 13.6807 64.3299 13.6807ZM63.8311 14.0205V15.5096H64.0552V14.8518H64.3082L64.7131 15.5096H64.9588L64.5323 14.8518C64.7492 14.8518 64.9372 14.6927 64.9372 14.4253C64.9372 14.1289 64.7492 14.0205 64.395 14.0205H63.8311ZM64.0552 14.2012H64.3733C64.5323 14.2012 64.6914 14.2735 64.6914 14.4253C64.6914 14.6566 64.5179 14.6711 64.3299 14.6711H64.0552V14.2012Z" fill="#6B665F"/>
</g>
<defs>
<clipPath id="clip0_2198_20157">
<rect width="66" height="15.9036" fill="white" transform="translate(0 0.855713)"/>
</clipPath>
</defs>
</svg>
