<?xml version="1.0" encoding="utf-8"?>
<!-- Generator: Adobe Illustrator 26.5.0, SVG Export Plug-In . SVG Version: 6.00 Build 0)  -->
<svg version="1.1" id="Layer_1" xmlns="http://www.w3.org/2000/svg" xmlns:xlink="http://www.w3.org/1999/xlink" x="0px" y="0px"
	 viewBox="0 0 279 64" style="enable-background:new 0 0 279 64;" xml:space="preserve">
<style type="text/css">
	.st0{clip-path:url(#SVGID_00000039832533265426818710000007995846436026935183_);}
	.st1{fill:#FFFFFF;}
</style>
<g>
	<defs>
		<rect id="SVGID_1_" width="119.8" height="27.1"/>
	</defs>
	<clipPath id="SVGID_00000078031443938390272660000011094301982363556489_">
		<use xlink:href="#SVGID_1_"  style="overflow:visible;"/>
	</clipPath>
	<g style="clip-path:url(#SVGID_00000078031443938390272660000011094301982363556489_);">
		<path class="st1" d="M17.6,26.6c-0.3-5.5-0.6-10.7-1-16c-0.1-1.3-0.4-2.7-0.8-4c-0.7-2-2.2-2.3-3.5-0.6c-1,1.2-1.9,2.6-2.4,4
			c-1.6,4.6-3.2,9.2-4.4,13.9c-0.6,2.3-1.6,3.2-3.9,2.8c-0.5-0.1-1,0-1.6,0V0.6h5v10.7c0.1,0,0.3,0.1,0.4,0.1
			c0.3-0.7,0.5-1.4,0.9-2.1c1.3-2.4,2.4-5.1,4.2-7.1c3.1-3.6,7.9-2.7,9.7,1.7c1.1,2.6,1.7,5.5,2,8.3c0.5,4.7,0.6,9.5,0.8,14.4
			L17.6,26.6L17.6,26.6z"/>
		<path class="st1" d="M97,0.6h5v10.5c0.1,0,0.3,0.1,0.4,0.1c0.3-0.7,0.5-1.4,0.9-2.1c1.3-2.3,2.3-5,4.1-6.9c3.1-3.5,8-2.6,9.7,1.8
			c1,2.7,1.6,5.6,1.9,8.5c0.5,4.2,0.5,8.4,0.7,12.6c0,0.5,0,1,0,1.5h-5.3c-0.1-2.3-0.2-4.5-0.3-6.8c-0.3-3.8-0.6-7.5-0.9-11.3
			c-0.1-0.7-0.3-1.4-0.6-2c-0.8-1.7-2.1-2-3.3-0.6c-1,1.2-2,2.7-2.5,4.2c-1.9,5.4-3.6,10.9-5.5,16.6H97V0.6z"/>
		<path class="st1" d="M94.4,26.6c-3,0.5-5.3,0.1-7.5-2.1c-2.1-2.1-4.6-3.8-7.2-5.3c-2.7-1.5-4-0.7-4.7,2.3
			c-0.4,1.7-0.8,3.5-1.2,5.2h-4.4c2.1-7.3,4.2-14.3,6.3-21.3C75.8,5,76,4.6,76.2,4.3c3.3-5.6,9-5.7,11.7,0.1
			c2.1,4.5,3.3,9.5,4.7,14.4C93.4,21.3,93.8,23.9,94.4,26.6L94.4,26.6z M76.3,14.6c4.7-0.2,7.6,2.4,11,4.4c-1-4-2.2-8-3.6-11.8
			c-0.3-0.9-1.6-2.1-2.4-2c-0.8,0-1.9,1.2-2.3,2.1C78,9.5,77.2,11.9,76.3,14.6L76.3,14.6z"/>
		<path class="st1" d="M29,26.7h-3.9c0.6-2.8,1.1-5.5,1.8-8.1c1.1-4,2.2-8,3.5-11.9c0.5-1.5,1.4-3,2.5-4.2c2.6-3.2,6.6-3.1,9.2,0.1
			c1,1.3,1.8,2.7,2.4,4.2c0.9,2.1,1.6,4.3,2.1,6.5c1.1,4.4,2.1,8.9,3.1,13.3c-2.9,0.5-5.3,0.2-7.5-2.1c-2.1-2.1-4.6-3.8-7.2-5.3
			c-2.8-1.6-4.1-0.8-4.9,2.4C29.8,23.2,29.4,24.9,29,26.7L29,26.7z M42.2,19.2c0.2-0.1,0.4-0.2,0.6-0.3c-1.4-4.1-2.5-8.2-4.1-12.2
			c-1-2.3-2.9-2.3-4.1,0c-1.2,2.4-2,5.1-3.1,7.9C36.1,14.5,39.1,16.9,42.2,19.2z"/>
		<path class="st1" d="M47.7,0.6h5.4c0.6,2.6,1.1,5.3,1.8,8c0.8,3.3,1.7,6.5,2.6,9.7c0.3,1,0.8,2,1.4,2.9c1,1.5,2.1,1.5,3,0.1
			c0.8-1.3,1.6-2.8,2-4.2c1.5-5.4,2.8-10.8,4.2-16.3h4.2C70.1,8,68,15.1,65.9,22.2c-0.2,0.5-0.5,1-0.8,1.5
			c-2.9,4.5-7.7,4.7-10.5,0.1c-1.5-2.5-2.5-5.3-3.3-8.1C49.9,10.7,48.9,5.7,47.7,0.6z"/>
	</g>
</g>
</svg>
