<svg width="102" height="32" viewBox="0 0 102 32" fill="none" xmlns="http://www.w3.org/2000/svg">
<path d="M15,27.1c-0.3-4.6-0.5-9.1-0.9-13.6c-0.1-1.1-0.3-2.3-0.7-3.4c-0.6-1.7-1.9-1.9-3-0.5c-0.8,1-1.6,2.2-2,3.4 c-1.3,3.9-2.7,7.8-3.7,11.8c-0.5,2-1.4,2.8-3.3,2.4c-0.4-0.1-0.8,0-1.4,0V5h4.3v9.1c0.1,0,0.2,0.1,0.4,0.1 c0.2-0.6,0.4-1.2,0.8-1.8c1.1-2.1,2-4.3,3.5-6.1c2.6-3,6.7-2.3,8.2,1.4c0.9,2.2,1.4,4.7,1.7,7.1c0.4,4,0.5,8.1,0.7,12.3L15,27.1 L15,27.1z" fill="black"/>
<path d="M82.6,4.9h4.2v8.9c0.1,0,0.2,0.1,0.4,0.1c0.3-0.6,0.5-1.2,0.8-1.8c1.1-2,2-4.2,3.5-5.9c2.6-3,6.8-2.2,8.2,1.5 c0.9,2.3,1.3,4.8,1.6,7.2c0.4,3.6,0.4,7.2,0.6,10.7c0,0.4,0,0.8,0,1.3h-4.5c-0.1-1.9-0.1-3.9-0.3-5.8c-0.2-3.2-0.5-6.4-0.8-9.6 c-0.1-0.6-0.2-1.2-0.5-1.7c-0.6-1.4-1.8-1.7-2.8-0.5c-0.9,1-1.7,2.3-2.1,3.6c-1.6,4.6-3.1,9.3-4.7,14.1h-3.7V4.9z" fill="black"/>
<path d="M80.4,27.1c-2.6,0.4-4.6,0.1-6.4-1.8c-1.7-1.8-4-3.2-6.2-4.5c-2.3-1.3-3.4-0.6-4,1.9c-0.3,1.5-0.7,2.9-1,4.5h-3.7 C60.9,21,62.6,15,64.4,9c0.1-0.3,0.3-0.6,0.5-1c2.8-4.8,7.6-4.9,10,0.1c1.8,3.9,2.8,8.1,4,12.2C79.5,22.6,79.9,24.8,80.4,27.1 L80.4,27.1z M64.9,16.9c4-0.2,6.5,2.1,9.4,3.8c-0.9-3.4-1.8-6.8-3.1-10.1c-0.3-0.8-1.3-1.8-2-1.7c-0.7,0-1.6,1-2,1.8 C66.4,12.6,65.8,14.6,64.9,16.9L64.9,16.9z" fill="black"/>
<path d="M24.7,27.2h-3.3c0.5-2.4,0.9-4.7,1.5-6.9c0.9-3.4,1.8-6.8,2.9-10.1c0.4-1.3,1.2-2.5,2.1-3.6c2.2-2.7,5.6-2.7,7.8,0.1 c0.9,1.1,1.6,2.3,2.1,3.6c0.7,1.8,1.3,3.7,1.8,5.5c0.9,3.8,1.8,7.5,2.6,11.3c-2.5,0.4-4.5,0.1-6.4-1.8c-1.8-1.8-3.9-3.3-6.1-4.5 c-2.4-1.3-3.5-0.6-4.1,2C25.3,24.2,25.1,25.6,24.7,27.2L24.7,27.2z M36,20.8c0.2-0.1,0.4-0.2,0.5-0.3c-1.2-3.5-2.1-7-3.5-10.4 c-0.8-2-2.5-2-3.5,0c-1,2.1-1.7,4.3-2.7,6.7C30.7,16.8,33.3,18.9,36,20.8z" fill="black"/>
<path d="M40.6,4.9h4.6c0.5,2.2,1,4.5,1.5,6.8c0.7,2.8,1.4,5.5,2.2,8.3c0.2,0.9,0.7,1.7,1.2,2.5c0.8,1.2,1.8,1.3,2.6,0.1 c0.7-1.1,1.3-2.3,1.7-3.6C55.6,14.3,56.8,9.7,58,5h3.6c-1.8,6.2-3.6,12.3-5.4,18.3c-0.1,0.5-0.4,0.9-0.7,1.3 c-2.5,3.9-6.6,4-8.9,0.1c-1.3-2.1-2.1-4.5-2.8-6.9C42.5,13.6,41.6,9.3,40.6,4.9z" fill="black"/>
</svg>
