<svg id="Layer_1" data-name="Layer 1" xmlns="http://www.w3.org/2000/svg" viewBox="0 0 173.38 63.98"><title>NOV_Logo_RGB_Black</title><path d="M428,306a32,32,0,0,1-56.58,20.46c4.36.53,10.57,0,19.41-2.66,13-4,24.07-13.5,30.47-22-.09-.64-.21-1.28-.35-1.91-7.35,7.45-18.74,15.28-30.16,18.12-18.54,4.61-24-.87-25.49-3.34l-.17-.34A32,32,0,1,1,428,306Zm31.43-30-13.53,22.38V276h-26a38.36,38.36,0,0,1,0,60.06H446L482.69,276ZM372.08,336H345.89l-13.53-22.38V336H309.31V276h23.25l13.53,22.38V276h26a38.36,38.36,0,0,0,0,60.06Z" transform="translate(-309.31 -274.01)"/></svg>