<svg width="88" height="14" viewBox="0 0 88 14" fill="none" xmlns="http://www.w3.org/2000/svg">
<g clip-path="url(#clip0_2787_21190)">
<path d="M13.3443 0.848276V3.44138H17.3712V13.1448H20.2224V3.44138H24.2493V0.848276H13.3443ZM60.273 0.848276H53.0922V3.46207H60.0758C61.1037 3.46207 61.505 3.92069 61.505 5.0931V5.53103H55.711C53.5075 5.53103 52.4128 6.6069 52.4128 9.04828V9.63104C52.4128 12.1379 53.5498 13.1448 55.8378 13.1448H64.3315V5.06207C64.328 1.96897 63.2826 0.848276 60.273 0.848276ZM56.1334 10.5172C55.7005 10.5172 55.2182 10.3069 55.2182 9.24828C55.2182 8.1931 55.6899 8.0069 56.1334 8.0069H61.505V10.5172H56.1334ZM83.9414 0.848276H76.7642V3.46207H83.7549C84.7792 3.46207 85.177 3.92069 85.177 5.0931V5.53103H79.3901C77.1866 5.53103 76.0883 6.6069 76.0883 9.04828V9.63104C76.0883 12.1379 77.2253 13.1448 79.5098 13.1448H88V5.06207C88 1.96897 86.9546 0.848276 83.9414 0.848276ZM79.8019 10.5172C79.369 10.5172 78.8867 10.3069 78.8867 9.24828C78.8867 8.1931 79.3619 8.0069 79.8019 8.0069H85.1734V10.5172H79.8019ZM25.1539 0.848276V3.44138H29.1808V13.1448H32.039V3.44138H36.0659V0.848276H25.1539ZM64.9018 0.848276V3.44138H68.9286V13.1448H71.7798V3.44138H75.8067V0.848276H64.9018ZM51.3075 8.83793V5.15862C51.3075 1.94138 50.0368 0.855172 47.1574 0.855172H39.519V13.1448H47.2912C50.343 13.1448 51.3075 11.6586 51.3075 8.83793ZM48.3965 8.89655C48.3965 10.069 47.9917 10.5276 46.9674 10.5276H42.3773V3.46897H46.9674C47.9917 3.46897 48.3965 3.92759 48.3965 5.11034V8.89655ZM9.31744 10.2138C9.2576 10.1035 5.45248 2.83448 4.98432 2.11724C4.44576 1.2931 3.79456 0.717241 2.54496 0.717241C1.37984 0.717241 0 1.21724 0 3.95862V13.1517H2.80896V5.48276C2.80896 4.93448 2.77728 4.11724 2.77024 3.95172C2.7632 3.81379 2.77024 3.68966 2.84064 3.65172C2.91456 3.60345 2.99552 3.67586 3.05536 3.77931C3.10816 3.88621 6.63872 10.7276 7.392 11.8828C7.92704 12.7138 8.58528 13.2828 9.83488 13.2828C11 13.2828 12.3728 12.7759 12.3728 10.0414V0.848276H9.56384V8.51379C9.56384 9.06897 9.59552 9.87931 9.60608 10.0448C9.60608 10.1759 9.60608 10.3069 9.53568 10.3448C9.45824 10.3966 9.37728 10.3207 9.31744 10.2138Z" fill="black"/>
</g>
<defs>
<clipPath id="clip0_2787_21190">
<rect width="88" height="14" fill="white"/>
</clipPath>
</defs>
</svg>
