<svg width="90" height="27" viewBox="0 0 90 27" fill="none" xmlns="http://www.w3.org/2000/svg">
<g clip-path="url(#clip0_2787_21193)">
<path d="M15.6203 6.48224L17.5259 3.09924C18.0805 2.11177 17.7585 0.840855 16.7833 0.273973C15.8171 -0.292908 14.5736 0.0362491 14.0189 1.03286L12.1044 4.41586C8.03383 3.09924 3.4712 4.79988 1.25252 8.74062C-0.161003 11.2459 -0.339929 14.126 0.518918 16.6495L4.04377 10.3955C4.84894 8.96006 6.16405 7.93601 7.7386 7.50628C9.31315 7.07655 10.9414 7.29599 12.346 8.12802C15.2446 9.83781 16.2466 13.6505 14.5646 16.6038C12.8827 19.5571 9.17896 20.5903 6.2714 18.8713L8.29327 15.2872C9.25947 15.8541 10.503 15.5249 11.0577 14.5283C11.6124 13.5408 11.2903 12.2699 10.3151 11.703C9.34894 11.1361 8.1054 11.4653 7.55073 12.4619L1.10937 23.891C0.554703 24.8784 0.87677 26.1494 1.85192 26.7162C2.81812 27.2831 4.06166 26.954 4.61633 25.9573L6.53085 22.5835C10.6014 23.9001 15.164 22.1903 17.3827 18.2587C19.6104 14.3271 18.7694 9.44465 15.6203 6.48224Z" fill="#151719"/>
<path d="M55.0284 8.83237C52.4608 8.83237 50.4121 10.8165 50.4121 13.5046C50.4121 16.1927 52.4608 18.1768 55.0284 18.1768C57.596 18.1768 59.6447 16.1927 59.6447 13.5046C59.6447 10.8165 57.596 8.83237 55.0284 8.83237ZM75.1129 8.83237C72.5453 8.83237 70.4966 10.8165 70.4966 13.5046C70.4966 16.1927 72.5453 18.1768 75.1129 18.1768C77.6805 18.1768 79.7292 16.1927 79.7292 13.5046C79.7292 10.8165 77.6805 8.83237 75.1129 8.83237ZM82.6725 8.86895V18.0579H84.3902V14.2452C84.3902 13.5869 84.256 12.5902 84.256 12.5902C84.256 12.5902 84.8733 13.404 85.3206 13.8337L89.8028 18.1493H89.9906V8.95124H88.2729V12.764C88.2729 13.3857 88.3892 14.4189 88.3892 14.4189C88.3892 14.4189 87.7809 13.5869 87.3425 13.1754L82.8515 8.86895H82.6725ZM24.1904 8.94209V18.0671H26.0334V15.0772H27.3306C29.1467 15.0772 30.6497 14.1446 30.6497 12.0051C30.6497 9.86556 29.1467 8.94209 27.3306 8.94209H24.1904ZM33.3336 8.94209V18.0579H39.4171V16.4121H35.1676V14.3H38.7461V12.6908H35.1676V10.597H39.2292V8.95124H33.3336V8.94209ZM42.5036 8.94209V18.0579H48.3723V16.4121H44.3375V8.94209H42.5036ZM61.6129 8.94209V10.5879H64.1536V18.0488H65.9966V10.5879H68.5463V8.94209H61.6129V8.94209ZM55.0284 10.4964C56.6477 10.4964 57.7481 11.7948 57.7481 13.5046C57.7481 15.2144 56.6477 16.5127 55.0284 16.5127C53.4091 16.5127 52.3087 15.2144 52.3087 13.5046C52.3087 11.7948 53.4091 10.4964 55.0284 10.4964ZM75.1129 10.4964C76.7322 10.4964 77.8326 11.7948 77.8326 13.5046C77.8326 15.2144 76.7322 16.5127 75.1129 16.5127C73.4936 16.5127 72.3932 15.2144 72.3932 13.5046C72.3932 11.7948 73.4936 10.4964 75.1129 10.4964ZM26.0244 10.597H27.268C28.1536 10.597 28.7441 10.9719 28.7441 11.9959C28.7441 13.0108 28.1715 13.4223 27.268 13.4223H26.0244V10.597Z" fill="#151719"/>
</g>
<defs>
<clipPath id="clip0_2787_21193">
<rect width="90" height="27" fill="white"/>
</clipPath>
</defs>
</svg>
