<svg width="103" height="32" viewBox="0 0 103 32" fill="none" xmlns="http://www.w3.org/2000/svg">
<path d="M76.2869 8.69552C76.2869 9.05228 76.1488 9.39443 75.9029 9.64669C75.6571 9.89896 75.3236 10.0407 74.9759 10.0407C74.6282 10.0407 74.2948 9.89896 74.0489 9.64669C73.8031 9.39443 73.6649 9.05228 73.6649 8.69552C73.6649 8.33877 73.8031 7.99662 74.0489 7.74436C74.2948 7.49209 74.6282 7.35037 74.9759 7.35037C75.3236 7.35037 75.6571 7.49209 75.9029 7.74436C76.1488 7.99662 76.2869 8.33877 76.2869 8.69552ZM96.2626 14.6036H99.5994V18.0088H96.2626V14.6036ZM30.0825 14.6036H33.4194V18.0088H30.0825V14.6036ZM20.0738 14.6036H23.4106V18.0088H20.0738V14.6036ZM10.2169 14.6036H13.5537V18.0088H10.2169V14.6036ZM0.00878906 14.6036H3.34566V18.0088H0.00878906V14.6036Z" fill="#191919"/>
<path d="M8.02693 7.80692H8.42283C10.9799 7.80692 12.1718 9.17486 12.6698 12.8229L13.4616 12.7879L13.3559 7H0.344058L0.21582 12.7879L0.977789 12.8229C1.10976 11.455 1.26803 10.7183 1.61152 9.98158C2.21873 8.61343 3.48599 7.80692 5.04349 7.80692H5.59787V20.3995C5.59787 21.7324 5.51873 22.1534 5.20218 22.4691C4.93804 22.7146 4.40996 22.8199 3.80254 22.8199H3.19533V23.6616H10.4295V22.8199H9.81853C9.21505 22.8199 8.68324 22.7144 8.42304 22.4691C8.10628 22.1534 8.02714 21.7322 8.02714 20.3995V7.80692" fill="#191919"/>
<path d="M42.4475 23.662L46.6634 8.95177V20.4954C46.6634 21.7552 46.5917 22.198 46.3058 22.5044C46.0912 22.7426 45.5938 22.845 45.0423 22.845H44.8278V23.662H50.7871V22.845H50.4769C49.9288 22.845 49.4282 22.7428 49.2138 22.5044C48.9275 22.198 48.856 21.7552 48.856 20.4954V10.6545C48.856 9.39449 48.9275 8.91779 49.2138 8.61139C49.4521 8.40712 49.9288 8.2708 50.4769 8.2708H50.7871V7.48749H46.1628L42.6826 19.3716L39.2774 7.48749H34.677V8.2708H35.1058C36.3693 8.2708 36.6076 8.54323 36.6076 10.1778V19.5418C36.6076 21.0401 36.5361 21.6531 36.3215 22.0958C36.0832 22.5385 35.5792 22.845 35.0582 22.845H34.6768V23.662H39.5869V22.845H39.2772C38.6575 22.845 38.1568 22.6065 37.8674 22.1298C37.5848 21.6531 37.5133 21.2104 37.5133 19.5418V8.95197L41.705 23.6622H42.4475M55.9116 12.1525C52.9559 12.1525 51.0253 14.4681 51.0253 18.1118C51.0253 21.6191 52.9559 24.0028 55.837 24.0028C58.7446 24.0028 60.6755 21.6191 60.6755 18.0778C60.6755 14.5702 58.7447 12.1525 55.9116 12.1525ZM55.8163 12.9356C56.6711 12.9356 57.4099 13.4805 57.8151 14.3999C58.1965 15.2512 58.3633 16.409 58.3633 18.0776C58.3633 21.5166 57.529 23.2191 55.8368 23.2191C54.1478 23.2191 53.3338 21.5164 53.3338 18.0434C53.3338 16.4088 53.5039 15.2512 53.8853 14.3999C54.2636 13.5147 55.0297 12.9356 55.8163 12.9356ZM64.6357 7.3172L61.2508 7.48749V8.23662H61.4142C62.4155 8.23662 62.6334 8.5772 62.6334 10.1776V21.2444C62.6334 22.6745 62.5858 23.0492 62.3952 23.662H63.1818C63.7741 22.6745 63.9206 22.5044 64.159 22.5044C64.2748 22.5044 64.3904 22.5383 64.5609 22.7086C65.7321 23.662 66.2326 23.8663 67.3053 23.8663C69.8761 23.8663 71.7354 21.3805 71.7354 17.8391C71.7354 14.502 70.0157 12.2547 67.4449 12.2547C66.1101 12.2547 65.1362 12.9017 64.6357 14.0593V7.3172ZM67.1079 13.1059C68.637 13.1059 69.4234 14.7405 69.4234 17.9413C69.4234 21.3123 68.613 23.049 67.0635 23.049C65.3473 23.049 64.4447 21.2781 64.4447 18.0434C64.4447 16.4088 64.6595 15.2853 65.1601 14.4339C65.6094 13.6168 66.3757 13.1059 67.1079 13.1059ZM76.1452 12.3228L72.6685 12.5271V13.2762H72.9308C73.9283 13.2762 74.1431 13.6168 74.1431 15.1832V20.938C74.1431 22.5046 73.9285 22.8791 72.9308 22.8791H72.5527V23.662H77.7425V22.8791H77.3677C76.3632 22.8791 76.1454 22.5383 76.1454 20.938V12.3228M82.1755 7.3172L78.6988 7.48749V8.23662H78.958C79.959 8.23662 80.1734 8.5772 80.1734 10.1776V20.9378C80.1734 22.5383 79.959 22.8789 78.958 22.8789H78.5799V23.6618H83.7726V22.8789H83.3912C82.3866 22.8789 82.1755 22.5381 82.1755 20.9378V7.3172ZM93.2564 18.0094C93.1404 14.3999 91.4242 12.1525 88.8296 12.1525C86.3232 12.1525 84.5151 14.6042 84.5151 18.0094C84.5151 21.6529 86.2994 24.0026 89.0645 24.0026C90.8522 24.0026 92.0917 23.049 93.1167 20.9378L92.4018 20.5632C91.5675 22.3339 90.7332 23.049 89.4459 23.049C87.5629 23.049 86.756 21.551 86.7318 18.0094H93.2564ZM86.7558 17.1579C86.7763 14.6042 87.6069 13.0038 88.9452 13.0038C90.28 13.0038 91.0664 14.5702 91.0428 17.1579H86.7558ZM100.856 11.8749C101.057 11.8749 101.254 11.9265 101.446 12.0299C101.637 12.1333 101.787 12.2812 101.894 12.4734C102.001 12.6657 102.054 12.8662 102.054 13.0751C102.054 13.2818 102.002 13.4805 101.896 13.6711C101.794 13.8586 101.64 14.0129 101.453 14.1155C101.262 14.2209 101.063 14.2737 100.856 14.2737C100.648 14.2737 100.449 14.2211 100.258 14.1155C100.071 14.0129 99.9168 13.8587 99.8143 13.6711C99.7082 13.4805 99.6552 13.2818 99.6552 13.0751C99.6552 12.8662 99.7089 12.6657 99.8166 12.4734C99.92 12.2852 100.076 12.1311 100.265 12.0299C100.458 11.9265 100.655 11.8749 100.856 11.8749ZM100.856 12.0746C100.688 12.0746 100.523 12.1177 100.364 12.2041C100.207 12.2888 100.077 12.4172 99.9902 12.5739C99.9025 12.7263 99.8561 12.899 99.8555 13.0748C99.8555 13.2474 99.8997 13.4127 99.9881 13.571C100.074 13.727 100.203 13.8553 100.359 13.941C100.518 14.0295 100.683 14.0736 100.856 14.0736C101.03 14.0732 101.201 14.0275 101.353 13.941C101.509 13.8555 101.637 13.7271 101.723 13.571C101.809 13.4198 101.854 13.2489 101.855 13.0748C101.855 12.9014 101.81 12.7343 101.72 12.5739C101.634 12.417 101.504 12.2885 101.346 12.2041C101.187 12.1177 101.023 12.0746 100.856 12.0746ZM100.33 13.7368V12.4461H100.774C100.925 12.4461 101.036 12.4581 101.103 12.4819C101.171 12.5058 101.226 12.5474 101.266 12.6069C101.306 12.6661 101.326 12.7293 101.326 12.796C101.326 12.8903 101.292 12.9725 101.225 13.0423C101.158 13.1121 101.068 13.1515 100.956 13.16C101.002 13.1791 101.039 13.2018 101.066 13.2284C101.118 13.2791 101.182 13.3645 101.257 13.4842L101.415 13.737H101.159L101.044 13.5333C100.954 13.374 100.882 13.2741 100.828 13.2335C100.789 13.2035 100.734 13.1886 100.661 13.1886H100.538V13.737H100.33V13.7368ZM100.538 13.0113H100.792C100.913 13.0113 100.996 12.9932 101.04 12.957C101.084 12.9207 101.106 12.8729 101.106 12.8132C101.106 12.7749 101.096 12.7405 101.074 12.7102C101.053 12.68 101.024 12.6572 100.986 12.6423C100.948 12.6274 100.878 12.6201 100.776 12.6201H100.538V13.0113Z" fill="#191919"/>
</svg>
