<svg width="96" height="32" viewBox="0 0 96 32" fill="none" xmlns="http://www.w3.org/2000/svg">
<path fill-rule="evenodd" clip-rule="evenodd" d="M76.5576 23.0513C76.8192 23.3391 77.421 23.0513 77.421 23.0513C78.1857 22.7413 78.7382 22.366 78.9881 22.1962C79.0546 22.1511 79.0997 22.1204 79.1217 22.1094L79.645 23.0251C79.645 23.0251 79.0694 23.7577 77.0285 24.5688C74.9877 25.3799 74.0981 24.4642 73.8888 24.0455C73.6795 23.6531 73.287 23.9932 73.287 23.9932C71.7433 25.0136 70.0164 25.1968 69.0484 24.281C68.8129 24.0717 68.6559 23.8101 68.5512 23.5223C68.1588 23.7839 67.5308 24.1502 66.5889 24.5165C64.5481 25.3276 63.6585 24.4119 63.4491 23.9932C63.2398 23.6008 62.8474 23.9409 62.8474 23.9409C61.2775 24.9875 59.5768 25.1445 58.6087 24.2287C58.2424 23.8624 58.0069 23.3653 57.9546 22.8158C57.1173 23.5223 55.1288 24.8567 52.303 24.8567C50.393 24.8567 49.2418 24.3072 48.64 23.4699C47.9597 23.7577 46.6777 24.2549 45.291 24.6473C43.51 25.1635 43.0531 24.534 42.8401 24.2406L42.8315 24.2287C42.6222 23.9409 42.0727 21.7431 42.0727 21.7431C41.9419 21.1675 41.6017 21.4291 41.6017 21.4291L40.4767 22.1355L39.1946 24.752H36.6305L37.1538 23.6792C36.6305 23.9671 36.0549 24.2549 35.4007 24.5165C33.3599 25.3276 32.4703 24.4119 32.261 23.9932C32.0517 23.6008 31.6592 23.9409 31.6592 23.9409C30.1155 24.9875 28.3886 25.1445 27.4206 24.2287C26.217 23.0775 26.6618 20.6703 28.4148 18.8388C30.1678 17.0334 32.9936 16.3532 34.485 17.6614L34.8775 16.955H37.4416L34.9298 22.2664C34.9298 22.2664 34.6943 22.7635 34.9559 23.0251C35.2176 23.3129 35.8194 23.0251 35.8194 23.0251C36.4596 22.7736 37.2995 22.2824 37.833 21.9704L37.8344 21.9696C37.9109 21.9249 37.981 21.8838 38.0434 21.8477L42.3867 13.0303H44.9508L42.282 18.4463C42.282 18.4463 41.9942 19.2313 42.7268 18.9173L45.9974 16.8765H48.6662L44.2967 19.7284C44.2967 19.7284 44.7677 22.371 44.8985 22.685C44.9016 22.6924 44.9046 22.6998 44.9077 22.7073C44.9132 22.721 44.9187 22.7349 44.9243 22.749C45.0472 23.0577 45.203 23.4492 46.1805 23.156C46.1805 23.156 46.887 23.0513 48.1429 22.3972C48.0121 21.7954 48.0644 21.1413 48.2737 20.4872C48.9278 18.3678 51.6228 16.1962 54.7364 16.3793C54.7364 16.3793 56.6464 16.4317 56.7772 17.8184C56.908 19.2051 55.3643 21.0105 51.2565 22.528C51.2565 22.528 51.6751 24.3334 55.3381 23.2345C55.3381 23.2345 57.0912 22.842 58.4779 20.4087C58.504 20.3563 58.5302 20.3106 58.5564 20.2648C58.5825 20.219 58.6087 20.1732 58.6349 20.1209C58.648 20.1078 58.6545 20.0882 58.661 20.0685C58.6676 20.0489 58.6741 20.0293 58.6872 20.0162C58.9227 19.5976 59.2105 19.2051 59.5768 18.8388C61.3298 17.0334 64.1556 16.3532 65.647 17.6614L68.0018 13.0303H70.5659L66.0918 22.2402C66.0918 22.2402 65.8563 22.7373 66.1179 22.999C66.3796 23.2868 66.9814 22.999 66.9814 22.999C67.6093 22.7373 68.0803 22.4495 68.3681 22.2664C68.4466 21.1675 68.996 19.9116 70.0164 18.865C71.7695 17.0596 74.5952 16.3532 76.0866 17.6876L76.4791 16.9811H79.0432L76.5314 22.2925C76.5314 22.2925 76.2959 22.7897 76.5576 23.0513ZM71.6386 22.999C72.2928 23.4699 73.5487 22.842 74.4383 21.5861C75.3279 20.3302 75.511 18.9435 74.8569 18.4725C74.2028 18.0015 72.9469 18.6295 72.0573 19.8854C71.1677 21.1413 70.9845 22.528 71.6386 22.999ZM61.1728 22.9466C61.8531 23.4176 63.109 22.7897 63.9986 21.5338C64.8882 20.2779 65.0452 18.8911 64.3911 18.4202C63.737 17.9492 62.4811 18.5772 61.5915 19.8331C60.7019 21.089 60.5187 22.4757 61.1728 22.9466ZM53.4543 17.8969C51.5704 18.6818 50.9948 20.618 50.9948 20.618C50.6285 21.6646 51.6228 21.2459 51.6228 21.2198C52.7478 20.8273 53.7683 19.6761 54.1869 19.0481C54.6579 18.3417 54.2654 17.9492 54.2654 17.9492C53.9776 17.7137 53.4543 17.8969 53.4543 17.8969ZM29.9847 22.9466C30.6388 23.4176 31.8947 22.7897 32.7843 21.5338C33.6739 20.2779 33.857 18.8911 33.1768 18.4202C32.5226 17.9492 31.2667 18.5772 30.3772 19.8331C29.4876 21.089 29.3306 22.4757 29.9847 22.9466Z" fill="#191919"/>
<path d="M32.2609 13.082L31.319 15.0705H27.1065L22.3184 24.8038H19.231L24.0191 15.0705H19.3879L20.3299 13.082H32.2609Z" fill="#191919"/>
<path fill-rule="evenodd" clip-rule="evenodd" d="M0 22.0829C0 22.0829 16.4837 0 47.6195 0C78.7553 0 95.5006 22.0567 95.5006 22.0829L88.7502 26.6094C88.7502 26.6094 87.9391 24.6208 86.1076 21.7689C86.1076 22.5015 86.0029 22.9725 86.0029 22.9725C84.7993 32.2609 75.6679 31.9993 75.6679 31.9993H19.7804C19.7804 31.9993 10.7798 32.2347 9.57623 22.9463C9.57623 22.9463 9.47157 22.423 9.47157 21.6904C7.58772 24.6208 6.77662 26.6617 6.77662 26.6617L0 22.0829ZM84.616 22.8151C84.616 22.8151 83.3863 29.9056 75.5631 29.9056H19.7541C11.9047 29.9056 10.8058 22.7366 10.8058 22.7366C10.4919 20.8265 10.8843 19.5445 11.4599 18.6287C17.1115 11.198 28.2838 1.20312 47.6194 1.20312C67.112 1.20312 78.3889 11.3288 84.0143 18.7595C84.6684 19.623 84.9039 20.9835 84.616 22.8151Z" fill="#191919"/>
</svg>
