<svg width="59" height="32" viewBox="0 0 59 32" fill="none" xmlns="http://www.w3.org/2000/svg">
<path opacity="0.5" d="M53.8002 24.3337L51.3982 21.6402L49.0175 24.3337H44.0076L48.9039 18.8328L44.0076 13.3304H49.1739L51.6 16.0034L53.9348 13.3304H58.9201L54.0482 18.8098L58.9878 24.3337H53.8002ZM34.3877 24.3337V7H44.0076V10.8637H38.4626V13.3304H44.0076V17.0481H38.4626V20.4604H44.0076V24.3337H34.3877Z" fill="#191919"/>
<path d="M30.3332 7V14.094H30.288C29.3896 13.0614 28.2668 12.7014 26.9645 12.7014C24.2964 12.7014 22.2864 14.5167 21.5808 16.9146C20.776 14.2719 18.7007 12.6522 15.624 12.6522C13.1249 12.6522 11.1521 13.7734 10.1215 15.6011V13.3301H4.9566V10.8641H10.5937V7.00083H0.352539V24.3337H4.9566V17.0481H9.54569C9.40431 17.6084 9.33366 18.1842 9.33534 18.762C9.33534 22.376 12.0972 24.9158 15.6232 24.9158C18.5872 24.9158 20.5422 23.523 21.5752 20.9871H17.6292C17.0959 21.7505 16.6907 21.9756 15.6236 21.9756C14.3868 21.9756 13.3194 20.8961 13.3194 19.618H21.3539C21.7024 22.4891 23.9394 24.9648 27.0097 24.9648C28.334 24.9648 29.5465 24.3135 30.2878 23.2133H30.3321V24.3363H34.3917V7.00083H30.3332V7ZM13.4474 17.1C13.704 15.9985 14.5578 15.279 15.6236 15.279C16.7973 15.279 17.6077 15.9764 17.8205 17.1H13.4474ZM27.8695 21.696C26.3737 21.696 25.4441 20.3024 25.4441 18.8469C25.4441 17.2907 26.253 15.7957 27.8695 15.7957C29.5468 15.7957 30.2152 17.2914 30.2152 18.8469C30.2152 20.3211 29.5076 21.696 27.8695 21.696Z" fill="#191919"/>
</svg>
